<svg xmlns="http://www.w3.org/2000/svg" xmlns:xlink="http://www.w3.org/1999/xlink" width="500" height="550" viewBox="0 0 500 550">
  <defs>
    <linearGradient id="linear-gradient" x1="356.43" y1="393.84" x2="356.43" y2="277.97" gradientTransform="matrix(0.65, 0, 0, 1.33, 16.69, 14.24)" gradientUnits="userSpaceOnUse">
      <stop offset="0" stop-color="#fff" stop-opacity="0"/>
      <stop offset="0.19" stop-color="#c3daff" stop-opacity="0.25"/>
      <stop offset="0.41" stop-color="#84b4ff" stop-opacity="0.51"/>
      <stop offset="0.61" stop-color="#5295ff" stop-opacity="0.72"/>
      <stop offset="0.78" stop-color="#2e7fff" stop-opacity="0.87"/>
      <stop offset="0.91" stop-color="#1872ff" stop-opacity="0.97"/>
      <stop offset="1" stop-color="#106dff"/>
    </linearGradient>
    <linearGradient id="Áåçûìÿííûé_ãðàäèåíò_269" data-name="Áåçûìÿííûé ãðàäèåíò 269" x1="317.45" y1="408.18" x2="317.45" y2="305" gradientUnits="userSpaceOnUse">
      <stop offset="0" stop-color="#a43440"/>
      <stop offset="1" stop-color="#c73634"/>
    </linearGradient>
    <linearGradient id="Áåçûìÿííûé_ãðàäèåíò_269-2" x1="177.51" y1="408.18" x2="177.51" y2="305" xlink:href="#Áåçûìÿííûé_ãðàäèåíò_269"/>
    <linearGradient id="linear-gradient-2" x1="185.53" y1="-4670" x2="185.53" y2="-4820.98" gradientTransform="translate(15.03 11076.89) scale(1.25 2.29)" gradientUnits="userSpaceOnUse">
      <stop offset="0" stop-color="#1863ff"/>
      <stop offset="0.07" stop-color="#1f6cff"/>
      <stop offset="0.31" stop-color="#378aff"/>
      <stop offset="0.55" stop-color="#489fff"/>
      <stop offset="0.78" stop-color="#52acff"/>
      <stop offset="1" stop-color="#55b0ff"/>
    </linearGradient>
    <radialGradient id="Áåçûìÿííûé_ãðàäèåíò_187" data-name="Áåçûìÿííûé ãðàäèåíò 187" cx="247.82" cy="902.82" r="31.1" gradientTransform="translate(0 -791.91) scale(1 0.91)" gradientUnits="userSpaceOnUse">
      <stop offset="0.02" stop-color="#ab5e75"/>
      <stop offset="0.25" stop-color="#9f577b"/>
      <stop offset="0.67" stop-color="#7f458c"/>
      <stop offset="0.99" stop-color="#61349c"/>
    </radialGradient>
    <linearGradient id="Áåçûìÿííûé_ãðàäèåíò_136" data-name="Áåçûìÿííûé ãðàäèåíò 136" x1="246.99" y1="28.24" x2="246.99" y2="15.36" gradientUnits="userSpaceOnUse">
      <stop offset="0" stop-color="#ffff18"/>
      <stop offset="1" stop-color="#ff7400"/>
    </linearGradient>
    <radialGradient id="Áåçûìÿííûé_ãðàäèåíò_183" data-name="Áåçûìÿííûé ãðàäèåíò 183" cx="246.9" cy="-3761.47" r="54.95" gradientTransform="translate(0 7213.62) scale(1 1.84)" gradientUnits="userSpaceOnUse">
      <stop offset="0.02" stop-color="#8881bc"/>
      <stop offset="0.29" stop-color="#8375b7"/>
      <stop offset="0.77" stop-color="#7555aa"/>
      <stop offset="0.99" stop-color="#6d43a3"/>
    </radialGradient>
    <radialGradient id="Áåçûìÿííûé_ãðàäèåíò_183-2" cx="247.17" cy="142.25" r="58.42" gradientTransform="matrix(1, 0, 0, 1, 0, 0)" xlink:href="#Áåçûìÿííûé_ãðàäèåíò_183"/>
    <radialGradient id="Áåçûìÿííûé_ãðàäèåíò_176" data-name="Áåçûìÿííûé ãðàäèåíò 176" cx="218.79" cy="-3876.44" r="66.21" gradientTransform="translate(5.92 7213.62) scale(1.1 1.84)" gradientUnits="userSpaceOnUse">
      <stop offset="0.02" stop-color="#725eb0"/>
      <stop offset="0.38" stop-color="#6d52aa"/>
      <stop offset="0.99" stop-color="#61349c"/>
    </radialGradient>
    <linearGradient id="Áåçûìÿííûé_ãðàäèåíò_4" data-name="Áåçûìÿííûé ãðàäèåíò 4" x1="247.63" y1="178.6" x2="247.63" y2="88.47" gradientUnits="userSpaceOnUse">
      <stop offset="0" stop-color="#ffff29"/>
      <stop offset="1" stop-color="#ff7e59"/>
    </linearGradient>
    <radialGradient id="Áåçûìÿííûé_ãðàäèåíò_176-2" cx="247.85" cy="-3715.45" r="21.59" gradientTransform="translate(0 7213.62) scale(1 1.84)" xlink:href="#Áåçûìÿííûé_ãðàäèåíò_176"/>
    <radialGradient id="Áåçûìÿííûé_ãðàäèåíò_183-3" cx="247.65" cy="66.48" r="39.77" gradientTransform="matrix(1, 0, 0, 1, 0, 0)" xlink:href="#Áåçûìÿííûé_ãðàäèåíò_183"/>
    <linearGradient id="Áåçûìÿííûé_ãðàäèåíò_220" data-name="Áåçûìÿííûé ãðàäèåíò 220" x1="244.62" y1="258.12" x2="244.62" y2="252.68" gradientUnits="userSpaceOnUse">
      <stop offset="0" stop-color="#8dc7ff"/>
      <stop offset="0.32" stop-color="#5c4d86"/>
    </linearGradient>
    <radialGradient id="Áåçûìÿííûé_ãðàäèåíò_199" data-name="Áåçûìÿííûé ãðàäèåíò 199" cx="245" cy="254.34" r="2.14" gradientUnits="userSpaceOnUse">
      <stop offset="0.02" stop-color="#8881bc"/>
      <stop offset="0.29" stop-color="#8375b7"/>
      <stop offset="0.77" stop-color="#7555aa"/>
      <stop offset="1" stop-color="#6d43a3"/>
    </radialGradient>
    <linearGradient id="Áåçûìÿííûé_ãðàäèåíò_220-2" x1="244.62" y1="244.71" x2="244.62" y2="239.27" xlink:href="#Áåçûìÿííûé_ãðàäèåíò_220"/>
    <radialGradient id="Áåçûìÿííûé_ãðàäèåíò_199-2" cx="245" cy="240.93" r="2.14" xlink:href="#Áåçûìÿííûé_ãðàäèåíò_199"/>
    <radialGradient id="Áåçûìÿííûé_ãðàäèåíò_259" data-name="Áåçûìÿííûé ãðàäèåíò 259" cx="200.23" cy="149.49" r="2.14" gradientUnits="userSpaceOnUse">
      <stop offset="0" stop-color="#f4bab3"/>
      <stop offset="1" stop-color="#8d6fc7"/>
    </radialGradient>
    <radialGradient id="Áåçûìÿííûé_ãðàäèåíò_259-2" cx="205" cy="111" r="2.14" xlink:href="#Áåçûìÿííûé_ãðàäèåíò_259"/>
    <radialGradient id="Áåçûìÿííûé_ãðàäèåíò_259-3" cx="225.68" cy="179.89" r="2.14" xlink:href="#Áåçûìÿííûé_ãðàäèåíò_259"/>
    <radialGradient id="Áåçûìÿííûé_ãðàäèåíò_259-4" cx="267.79" cy="183.16" r="2.14" xlink:href="#Áåçûìÿííûé_ãðàäèåíò_259"/>
    <radialGradient id="Áåçûìÿííûé_ãðàäèåíò_259-5" cx="296.31" cy="157.78" r="2.14" xlink:href="#Áåçûìÿííûé_ãðàäèåíò_259"/>
    <radialGradient id="Áåçûìÿííûé_ãðàäèåíò_259-6" cx="291.94" cy="109.59" r="2.14" xlink:href="#Áåçûìÿííûé_ãðàäèåíò_259"/>
    <radialGradient id="Áåçûìÿííûé_ãðàäèåíò_259-7" cx="270.51" cy="84.74" r="2.14" xlink:href="#Áåçûìÿííûé_ãðàäèåíò_259"/>
    <radialGradient id="Áåçûìÿííûé_ãðàäèåíò_259-8" cx="234.43" cy="80.84" r="2.14" xlink:href="#Áåçûìÿííûé_ãðàäèåíò_259"/>
    <linearGradient id="Áåçûìÿííûé_ãðàäèåíò_3" data-name="Áåçûìÿííûé ãðàäèåíò 3" x1="267.79" y1="408.18" x2="267.79" y2="293.53" gradientUnits="userSpaceOnUse">
      <stop offset="0" stop-color="#a43411"/>
      <stop offset="1" stop-color="#c73634"/>
    </linearGradient>
    <linearGradient id="Áåçûìÿííûé_ãðàäèåíò_136-2" x1="321.64" y1="125.51" x2="328.43" y2="125.51" xlink:href="#Áåçûìÿííûé_ãðàäèåíò_136"/>
    <linearGradient id="Áåçûìÿííûé_ãðàäèåíò_136-3" x1="167.91" y1="123.65" x2="174.3" y2="123.65" xlink:href="#Áåçûìÿííûé_ãðàäèåíò_136"/>
    <linearGradient id="Áåçûìÿííûé_ãðàäèåíò_220-3" x1="202.12" y1="296.35" x2="202.12" y2="290.06" xlink:href="#Áåçûìÿííûé_ãðàäèåíò_220"/>
    <linearGradient id="Áåçûìÿííûé_ãðàäèåíò_220-4" x1="292.63" y1="289.81" x2="292.63" y2="283.53" xlink:href="#Áåçûìÿííûé_ãðàäèåíò_220"/>
    <linearGradient id="Áåçûìÿííûé_ãðàäèåíò_220-5" x1="249.57" y1="289.32" x2="249.57" y2="283.04" xlink:href="#Áåçûìÿííûé_ãðàäèåíò_220"/>
    <radialGradient id="Áåçûìÿííûé_ãðàäèåíò_217" data-name="Áåçûìÿííûé ãðàäèåíò 217" cx="104.71" cy="-193.47" r="12.43" gradientTransform="translate(-59.96 377.11) rotate(45.26) scale(1.47)" gradientUnits="userSpaceOnUse">
      <stop offset="0" stop-color="#003cee"/>
      <stop offset="0.06" stop-color="#0036d6"/>
      <stop offset="0.2" stop-color="#00289e"/>
      <stop offset="0.34" stop-color="#001c6d"/>
      <stop offset="0.48" stop-color="#001246"/>
      <stop offset="0.62" stop-color="#000a27"/>
      <stop offset="0.75" stop-color="#000412"/>
      <stop offset="0.88" stop-color="#000104"/>
      <stop offset="1"/>
    </radialGradient>
    <radialGradient id="radial-gradient" cx="191.49" cy="-278.36" r="9.92" gradientTransform="translate(209.77 607.17) rotate(-21.18) scale(1.47)" gradientUnits="userSpaceOnUse">
      <stop offset="0" stop-color="#ff9a00"/>
      <stop offset="0.01" stop-color="#ff9c04" stop-opacity="0.98"/>
      <stop offset="0.3" stop-color="#ffbe5c" stop-opacity="0.64"/>
      <stop offset="0.55" stop-color="#ffdaa2" stop-opacity="0.37"/>
      <stop offset="0.76" stop-color="#ffeed4" stop-opacity="0.17"/>
      <stop offset="0.91" stop-color="#fffaf3" stop-opacity="0.05"/>
      <stop offset="1" stop-color="#fff" stop-opacity="0"/>
    </radialGradient>
    <radialGradient id="radial-gradient-2" cx="166.42" cy="-360.22" r="9.92" xlink:href="#radial-gradient"/>
    <radialGradient id="radial-gradient-3" cx="94.53" cy="-316.73" r="5.13" xlink:href="#radial-gradient"/>
    <radialGradient id="Áåçûìÿííûé_ãðàäèåíò_217-2" cx="130.33" cy="-183.19" r="4.79" gradientTransform="translate(209.77 607.17) rotate(-21.18) scale(1.47)" xlink:href="#Áåçûìÿííûé_ãðàäèåíò_217"/>
    <radialGradient id="Áåçûìÿííûé_ãðàäèåíò_217-3" cx="71.34" cy="-201.28" r="4.79" gradientTransform="translate(209.77 607.17) rotate(-21.18) scale(1.47)" xlink:href="#Áåçûìÿííûé_ãðàäèåíò_217"/>
  </defs>
  <title>a</title>
  <g style="isolation: isolate">
    <g id="space_background" data-name="space background">
      <g>
        <path d="M214.13,386.85l4.37,153.06,62.55-5.54,1.26-146.88S232.58,383.54,214.13,386.85Z" style="mix-blend-mode: screen;fill: url(#linear-gradient)"/>
        <path d="M307.65,309.83l26.2-4.83S338,353.74,306.6,408.18h-2.48l2-73-5.24-.18Z" style="fill-rule: evenodd;fill: url(#Áåçûìÿííûé_ãðàäèåíò_269)"/>
        <path d="M188,310l-26.91-5s-4.2,48.74,27.24,103.18h2.48l-2-73,5.24-.18Z" style="fill-rule: evenodd;fill: url(#Áåçûìÿííûé_ãðàäèåíò_269-2)"/>
        <path d="M247.72,26.78c-33.91,0-87,81.77-82.73,157.83s39.29,187.8,39.29,187.8l43.44.43,43.45-.43s35-111.74,39.28-187.8S281.41,26.78,247.72,26.78Z" style="fill-rule: evenodd;fill: url(#linear-gradient-2)"/>
        <path d="M204.28,372.41s49.45-4.4,86.89,0C291.17,372.41,242.64,377.21,204.28,372.41Z" style="fill: #31165f;fill-rule: evenodd"/>
        <path d="M202.16,61.21s48.05-15.23,93.76,4c0,0-23.59-38.17-48.2-38.39C225.58,26.58,202.16,61.21,202.16,61.21Z" style="fill-rule: evenodd;fill: url(#Áåçûìÿííûé_ãðàäèåíò_187)"/>
        <path d="M295.68,65.73c-42.45-18.31-92.84-4.09-93.35-3.94L202,60.62c.51-.15,51.32-14.5,94.17,4Z" style="fill: #53345f"/>
        <path d="M236.31,29.46l25.4,1.29S248.83,21.55,236.31,29.46Z" style="fill: #53345f;fill-rule: evenodd"/>
        <path d="M239.84,28.24a54.07,54.07,0,0,1,14.29-.37s-2.79-12.08-7.14-12.5S239.84,28.24,239.84,28.24Z" style="fill-rule: evenodd;fill: url(#Áåçûìÿííûé_ãðàäèåíò_136)"/>
        <path d="M184.18,298.56s73.3-24,128.78-7.15c-7.22,31.77-21.79,81-21.79,81s-33.21-4.67-86.89,0C204.28,372.41,190.78,335.73,184.18,298.56Z" style="fill-rule: evenodd;opacity: 0.5;mix-blend-mode: multiply;fill: url(#Áåçûìÿííûé_ãðàäèåíò_183)"/>
        <path d="M244.89,81.76c-30.61,2.38-52.4,38.87-53.8,70.7s27.69,51.28,58.71,50.4,56.71-22.22,53.17-57.08C299.76,114.27,278.86,79.11,244.89,81.76Z" style="fill-rule: evenodd;opacity: 0.5;mix-blend-mode: multiply;fill: url(#Áåçûìÿííûé_ãðàäèåíò_183-2)"/>
        <path d="M244.89,76.69c-30.61,2.39-52.4,38.88-53.8,70.71s27.69,51.27,58.71,50.4,56.71-22.23,53.17-57.08C299.76,109.21,278.86,74.05,244.89,76.69Z" style="fill: #31165f;fill-rule: evenodd"/>
        <path d="M244.89,73.16c-30.61,2.39-52.4,38.87-53.8,70.71s27.69,51.27,58.71,50.39S306.51,172,303,137.19C299.76,105.68,278.86,70.52,244.89,73.16Z" style="fill-rule: evenodd;fill: url(#Áåçûìÿííûé_ãðàäèåíò_176)"/>
        <path d="M246.92,84.47c-27.43,1.68-41.18,30.34-42.28,55.19s21.76,40,46.13,39.34,44.57-17.35,41.78-44.55C290,109.85,275.57,82.71,246.92,84.47Z" style="fill: #a6345f;fill-rule: evenodd"/>
        <path d="M276.43,170.09h0l0,0a45.24,45.24,0,0,1-25.74,8.44c-23.2.65-47.05-15.27-46-38.92a65.16,65.16,0,0,1,5.44-23.43c6.45-14.57,18.68-26.18,36.88-27.64,26.9-2.15,41,24.16,43.44,47.58C292,151.21,286.12,162.85,276.43,170.09Z" style="fill-rule: evenodd;fill: url(#Áåçûìÿííûé_ãðàäèåíò_4)"/>
        <rect x="249.26" y="197.8" width="0.61" height="88.38" style="fill: #53345f"/>
        <path d="M184.27,298.85l-.18-.58C268,274,312.63,291,313.07,291.13l-.22.57C312.41,291.52,267.91,274.63,184.27,298.85Z" style="fill: #53345f"/>
        <path d="M177.68,269.38l-.34-.51c.26-.17,26.19-17,72.21-19.5l0,.61C203.72,252.46,177.94,269.21,177.68,269.38Z" style="fill: #53345f"/>
        <polygon points="259.68 349.77 258.45 311.63 268.88 308.98 267.86 349.77 259.68 349.77" style="fill: #31165f;fill-rule: evenodd"/>
        <path d="M211.46,373.19s37.74-3.64,74.72-.35l-2.24,17.09-70.4-1.88Z" style="fill-rule: evenodd;fill: url(#Áåçûìÿííûé_ãðàäèåíò_176-2)"/>
        <path d="M212.51,380.7a65.35,65.35,0,0,1,29.7-6.56c17,.36,42.25,11.83,42.25,11.83l1.72-13.13s-40.31-3.93-74.72.35Z" style="fill: #31165f;fill-rule: evenodd;opacity: 0.5"/>
        <path d="M263.81,99S270.26,104.89,276,116l5.89-3.43s-4.52-10.89-13-14.74Z" style="fill: #fff"/>
        <polygon points="213.19 147.38 218.05 155.96 213.19 158.84 209.68 151.67 213.19 147.38" style="fill: #fff"/>
        <path d="M192.33,76.64S240.42,51.85,303,76.55l-7.05-11.38s-36.14-16.94-93.76-4Z" style="fill-rule: evenodd;opacity: 0.5;mix-blend-mode: multiply;fill: url(#Áåçûìÿííûé_ãðàäèåíò_183-3)"/>
        <g>
          <path d="M247.34,255.4a2.72,2.72,0,1,1-2.72-2.72A2.72,2.72,0,0,1,247.34,255.4Z" style="fill-rule: evenodd;fill: url(#Áåçûìÿííûé_ãðàäèåíò_220)"/>
          <circle cx="244.62" cy="255.4" r="2.14" style="fill: url(#Áåçûìÿííûé_ãðàäèåíò_199)"/>
        </g>
        <g>
          <path d="M247.34,242a2.72,2.72,0,1,1-2.72-2.72A2.72,2.72,0,0,1,247.34,242Z" style="fill-rule: evenodd;fill: url(#Áåçûìÿííûé_ãðàäèåíò_220-2)"/>
          <circle cx="244.62" cy="241.99" r="2.14" style="fill: url(#Áåçûìÿííûé_ãðàäèåíò_199-2)"/>
        </g>
        <g>
          <circle cx="199.84" cy="150.55" r="2.72" style="fill: #31165f"/>
          <circle cx="199.84" cy="150.55" r="2.14" style="fill: url(#Áåçûìÿííûé_ãðàäèåíò_259)"/>
        </g>
        <g>
          <path d="M207.33,112.06a2.72,2.72,0,1,1-2.72-2.72A2.72,2.72,0,0,1,207.33,112.06Z" style="fill: #31165f;fill-rule: evenodd"/>
          <circle cx="204.61" cy="112.06" r="2.14" style="fill: url(#Áåçûìÿííûé_ãðàäèåíò_259-2)"/>
        </g>
        <g>
          <path d="M228,181a2.72,2.72,0,1,1-2.72-2.72A2.71,2.71,0,0,1,228,181Z" style="fill: #31165f;fill-rule: evenodd"/>
          <circle cx="225.29" cy="180.95" r="2.14" style="fill: url(#Áåçûìÿííûé_ãðàäèåíò_259-3)"/>
        </g>
        <g>
          <circle cx="267.41" cy="184.22" r="2.72" style="fill: #31165f"/>
          <circle cx="267.41" cy="184.22" r="2.14" style="fill: url(#Áåçûìÿííûé_ãðàäèåíò_259-4)"/>
        </g>
        <g>
          <circle cx="295.92" cy="158.84" r="2.72" style="fill: #31165f"/>
          <circle cx="295.92" cy="158.84" r="2.14" style="fill: url(#Áåçûìÿííûé_ãðàäèåíò_259-5)"/>
        </g>
        <g>
          <circle cx="291.56" cy="110.65" r="2.72" style="fill: #31165f"/>
          <circle cx="291.56" cy="110.65" r="2.14" style="fill: url(#Áåçûìÿííûé_ãðàäèåíò_259-6)"/>
        </g>
        <g>
          <path d="M272.85,85.8a2.72,2.72,0,1,1-2.72-2.72A2.72,2.72,0,0,1,272.85,85.8Z" style="fill: #31165f;fill-rule: evenodd"/>
          <circle cx="270.13" cy="85.8" r="2.14" style="fill: url(#Áåçûìÿííûé_ãðàäèåíò_259-7)"/>
        </g>
        <g>
          <path d="M236.76,81.9A2.72,2.72,0,1,1,234,79.18,2.72,2.72,0,0,1,236.76,81.9Z" style="fill: #31165f;fill-rule: evenodd"/>
          <circle cx="234.04" cy="81.9" r="2.14" style="fill: url(#Áåçûìÿííûé_ãðàäèåíò_259-8)"/>
        </g>
        <polygon points="190.84 408.18 192.84 408.18 190.84 335.13 188.86 335.2 190.84 408.18" style="fill: #6f2561;fill-rule: evenodd"/>
        <polygon points="306.11 335.2 304.12 335.13 302.77 408.18 304.12 408.18 306.11 335.2" style="fill: #6f2561;fill-rule: evenodd"/>
        <polygon points="266.7 293.53 273.86 293.53 266.7 408.18 261.71 408.18 266.7 293.53" style="fill-rule: evenodd;fill: url(#Áåçûìÿííûé_ãðàäèåíò_3)"/>
        <polygon points="266.7 293.53 261.71 318.91 261.71 408.18 266.7 293.53" style="fill: #ff4c61;fill-rule: evenodd"/>
        <polygon points="273.64 297.06 291.17 372.41 273.86 371.46 273.64 389.66 267.86 389.66 273.64 297.06" style="fill: #31165f;fill-rule: evenodd;opacity: 0.5"/>
        <path d="M186.88,98.54s-.71-7.88,4.28-12.74l4.08.2a134.31,134.31,0,0,1-6.34,12.54Z" style="fill: #fff"/>
        <polygon points="312.96 272.06 320.45 237.96 322.54 237.96 315.43 272.06 312.96 272.06" style="fill: #fff;mix-blend-mode: soft-light"/>
        <path d="M321.64,119.49s12.65-2.62,3.43,12.22Z" style="fill-rule: evenodd;fill: url(#Áåçûìÿííûé_ãðàäèåíò_136-2)"/>
        <path d="M174.3,117.79s-11.73,3.47-3.39,11.72Z" style="fill-rule: evenodd;fill: url(#Áåçûìÿííûé_ãðàäèåíò_136-3)"/>
        <path d="M216.55,371.16s-32.67-101-45.44-176.41l-3.2,1.58S183.27,312,206,372.26Z" style="fill: #fff;fill-rule: evenodd;opacity: 0.5;mix-blend-mode: soft-light"/>
        <polygon points="321.6 230.22 325.36 209.2 327.35 209.2 323.59 230.22 321.6 230.22" style="fill: #fff;fill-rule: evenodd;mix-blend-mode: soft-light"/>
        <path d="M189.83,264.34s21.65-9.67,42.28-11.66C232.11,252.68,211.56,257.28,189.83,264.34Z" style="fill: #fff;fill-rule: evenodd;mix-blend-mode: soft-light"/>
        <path d="M250.57,206l.52,77.48S252.44,255.4,250.57,206Z" style="fill: #fff;fill-rule: evenodd;mix-blend-mode: soft-light"/>
        <path d="M199.84,295.35s51.58-15.15,101-5.44C300.87,289.91,264.21,280.92,199.84,295.35Z" style="fill: #fff;fill-rule: evenodd;mix-blend-mode: soft-light"/>
        <path d="M211.36,91.91s7,2.84,11.14-10.29C222.5,81.62,215.55,86.55,211.36,91.91Z" style="fill: #fff;fill-rule: evenodd"/>
        <path d="M256,193.81s16.88-.89,36.85-19.19C292.81,174.62,280.82,191.31,256,193.81Z" style="fill: #fff;fill-rule: evenodd;mix-blend-mode: soft-light"/>
        <path d="M249.57,179s14.74,7.92,24.81-6.59C274.38,172.43,266.56,179.42,249.57,179Z" style="fill: #fff;fill-rule: evenodd;mix-blend-mode: soft-light"/>
        <g style="opacity: 0.36;mix-blend-mode: soft-light">
          <path d="M246.7,212.2c-.88.6-2.55,1.43-2.27,2.76a15.36,15.36,0,0,0,.69,1.74,8.15,8.15,0,0,1,.32,1.62,4.78,4.78,0,0,0,1,2.47c.41.44.83,0,1.11-.42a3.11,3.11,0,0,0,.63-1.47,10.56,10.56,0,0,1,.24-2.1c.07-.26.28-.5.34-.78a4.91,4.91,0,0,0,.05-1.15A2.92,2.92,0,0,0,246.7,212.2Z" style="fill: #fff;fill-rule: evenodd"/>
          <path d="M243.14,223.29a.83.83,0,0,1,.2-.9c1.31,0,1.77,2.6.54,3.1-1.41.58-1.59-1.36-1.15-2.2Z" style="fill: #fff;fill-rule: evenodd"/>
          <path d="M219.09,239.81c.68-.32,1.25-.78,2-.6a3,3,0,0,1,1.58,1,5.41,5.41,0,0,1,1,2.14,1.88,1.88,0,0,1,.19,1.11c-.4,1.54-2.16,2.62-3.55,3.06a10.6,10.6,0,0,1-2.4.62c-.57.05-1.16.13-1.73.23a3.23,3.23,0,0,1-1.41.15,3.56,3.56,0,0,1-1.11-.62,3.49,3.49,0,0,1-1.47-2.88c.08-2,2.47-3.61,4.1-4.42C217.6,238.93,219.72,238.11,219.09,239.81Z" style="fill: #fff;fill-rule: evenodd"/>
          <path d="M225.36,237.1c-.19.57-.36.74.1,1.06a1.41,1.41,0,0,0,1.17.09c.7-.23,1.57-1.29,1.05-2-.26-.36-.88-1-1.32-1.05a2.06,2.06,0,0,0-1.83,1.91Z" style="fill: #fff;fill-rule: evenodd"/>
          <path d="M251.51,256.65a2.83,2.83,0,0,0-.1.92v2.33c0,1.46-.21,2.92-.21,4.39a19.81,19.81,0,0,0,.33,3.17c.09.54.2,1.11.32,1.63.13,0,.15-.3.2-.42.18-.41.29-.86.5-1.25.48-.87,1-1.78,1.38-2.69a2.36,2.36,0,0,1,.21-.52c.14-.19.36-.37.51-.55a4.24,4.24,0,0,0,.71-1.07,7.09,7.09,0,0,0,.34-3c0-.33-.1-.65-.11-1a9.61,9.61,0,0,0-.07-1.07,6,6,0,0,0-.87-2.15c-.45-.78-1-2.13-2-2.35-.49-.11-.67.43-.75.82s-.09,1-.16,1.52C251.68,256,251.45,256.82,251.51,256.65Z" style="fill: #fff;fill-rule: evenodd"/>
          <path d="M252.56,249.75c.22-.37.51-1.05,1.07-.93s.56.9.5,1.33c-.15,1-1.45-.05-1.36-.71Z" style="fill: #fff;fill-rule: evenodd"/>
          <path d="M262.49,256.13a1.9,1.9,0,0,0-.26,1.2,1.12,1.12,0,0,0,1.21.9c.93,0,1.56-.2,1.75-1.16a2.42,2.42,0,0,0-.71-1.88,1.17,1.17,0,0,0-.76-.32c-.57,0-.84.41-1.12.84Z" style="fill: #fff;fill-rule: evenodd"/>
          <path d="M283.41,285.31a20.4,20.4,0,0,1,4.35-1.58,39,39,0,0,1,4-.27,40.16,40.16,0,0,0,5.5-1.26,9.81,9.81,0,0,1,4.84-.22,4.9,4.9,0,0,1,3.17,2.29,7.07,7.07,0,0,1,.67,2.34c0,.38.08.73.13,1.11a2.85,2.85,0,0,1,.1.68c0,.36-.15.37-.49.36a3,3,0,0,1-1.69-.41,8.62,8.62,0,0,0-2.92-.94c-1-.18-1.93-.41-2.91-.53l-2.91-.36-2.5-.38c-.82-.11-1.66-.11-2.48-.18s-1.39,0-2.08,0a10.86,10.86,0,0,0-1.28-.08,5.55,5.55,0,0,1-1-.09c-.33-.05-.65,0-1,0A8,8,0,0,1,283.41,285.31Z" style="fill: #fff;fill-rule: evenodd"/>
          <path d="M292.3,279.25c-.21.17-.49.33-.55.6a1.25,1.25,0,0,0,0,.43c.14.62,1.17.65,1.67.65a5.8,5.8,0,0,0,4-1.43,3.34,3.34,0,0,0,1-2.72c-.27-1.29-1.67-2-2.87-2.3s-2.71-.31-3.58.58a1.94,1.94,0,0,0-.61,1.15c0,.35.1.68.1,1s-.23.86,0,1.32A1.57,1.57,0,0,0,292.3,279.25Z" style="fill: #fff;fill-rule: evenodd"/>
          <path d="M300.67,279.35a.66.66,0,0,1,.17-.73.67.67,0,0,1,.77-.3.93.93,0,0,1,.63,1.25,1.13,1.13,0,0,1-.9.52.87.87,0,0,1-.88-.63Z" style="fill: #fff;fill-rule: evenodd"/>
          <path d="M311.44,249a1.84,1.84,0,0,0-1.08.86.69.69,0,0,0-.09.73,3.64,3.64,0,0,0,1.91,1.67,2.18,2.18,0,0,0,1.68-.13A5.46,5.46,0,0,0,315,251c.29-.34.56-.69.82-1.06a1.76,1.76,0,0,0,.34-2.06,2.45,2.45,0,0,0-2.06-1.11,3.51,3.51,0,0,0-1.54.54C312,247.62,311.56,247.79,311.44,249Z" style="fill: #fff;fill-rule: evenodd"/>
          <path d="M308.62,252.16a3.34,3.34,0,0,1,1.2.32c0,.19.22.3.14.52s-.63.22-.87.21a1.32,1.32,0,0,1-.84-.37c-.08-.08-.43-.44-.15-.47Z" style="fill: #fff;fill-rule: evenodd"/>
          <path d="M270.86,276.63c-.26.48-.56,1-.1,1.53a1.57,1.57,0,0,0,1.77.14c.28-.12.6-.26.64-.58s0-.68,0-1c0-.79.81-1.35.1-2.1a1.74,1.74,0,0,0-1.35-.48c-.79.16-1.19,1-1.47,1.66Z" style="fill: #fff;fill-rule: evenodd"/>
          <path d="M207.48,305.6a5,5,0,0,0-2.35,1.28l0,.35a2.24,2.24,0,0,0,.05,1.83c.94,1.79,2.8,1.57,4.49,1.56s4.11.2,3.28-2.31c-.38-1.15-.91-3-2-3.73-.56-.38-.84-.2-1.39,0a6.32,6.32,0,0,0-2.14,1Z" style="fill: #fff;fill-rule: evenodd"/>
          <path d="M228.19,308.43c.27-.49.68-1.44,1.39-1.52s.78.27,1.19.57c.92.66,1.79,1.52.88,2.69a2.44,2.44,0,0,1-2.05.75c-.6-.11-1.61-.84-1.41-1.55Z" style="fill: #fff;fill-rule: evenodd"/>
          <path d="M314.79,150.28c-.67,1.38-.73,1.46-.34,2.85a6.84,6.84,0,0,0,1.27,3c1,1.07,2.46.81,3.77,1.09a2.5,2.5,0,0,0,2.5-.4,9.5,9.5,0,0,0,2.25-2.67,12.92,12.92,0,0,0,.26-10.84c-.93-2.09-2.32-4.48-4.69-5.15a5.68,5.68,0,0,0-5.68,1.43,6.57,6.57,0,0,0-1.36,5.79c.14.47.27.94.4,1.42a9.43,9.43,0,0,1,0,1.84C313.27,149.34,313.63,149.93,314.79,150.28Z" style="fill: #fff;fill-rule: evenodd"/>
          <path d="M311,155.62c1.32,1,1.13.87,1.32,2.19.09.59.32.71.2,1.26a2,2,0,0,1-1.85,1.29c-.56-.05-1.41-1.11-1.64-1.53a1.49,1.49,0,0,1,.09-1.64Z" style="fill: #fff;fill-rule: evenodd"/>
          <path d="M178.92,155.3c-.28,1.15-.65,2.5.61,3.27.86.53,2.18,0,2.94-.58a7.86,7.86,0,0,0,2.4-4.26c.19-1.45-1.55-3-2.89-3.16-2.71-.34-4.15,4-4.31,6Z" style="fill: #fff;fill-rule: evenodd"/>
          <path d="M177,167.86c-.15-.33-.81-1.25-.7-1.65.06-.19.28-.23.37-.37a2,2,0,0,1,1.34-1.14,2.76,2.76,0,0,1,3.08,1.43,1.7,1.7,0,0,1-.19,2.2c-.71.7-2.23,1-3,.15Z" style="fill: #fff;fill-rule: evenodd"/>
          <path d="M297.22,313.45a9.71,9.71,0,0,0-.4,6.15c.26,1.33.45,3.1,1.87,3.69,3.35,1.39,5.93-5.81,6.57-8.11a14.61,14.61,0,0,0,.38-6.14c-.21-1.2-1.15-3.6-2.33-4.22-1.51-.79-3.22.18-4.15,1.38-2.12,2.76-1.58,6.31-2.57,9.44Z" style="fill: #fff;fill-rule: evenodd"/>
          <path d="M295.49,313a8.18,8.18,0,0,0-2.4.53c-.37.24-1,.62-1.06,1.06a1.83,1.83,0,0,0,.7,1.62,1.27,1.27,0,0,0,1.19.37c.31-.12.56-.55.75-.8a7.79,7.79,0,0,0,.82-1.54,3.48,3.48,0,0,0,.32-.77c.08-.44-.21-.59-.32-.94Z" style="fill: #fff;fill-rule: evenodd"/>
          <path d="M293.61,330.55l1.13.52c-.07.45.1,1-.34,1.25a2.09,2.09,0,0,1-1.42.08,1.08,1.08,0,0,1-.78-1.07c0-.59.55-.84,1.1-.94Z" style="fill: #fff;fill-rule: evenodd"/>
          <path d="M241.52,354.24a1.21,1.21,0,0,0,.21,1.42,1.7,1.7,0,0,0,2.3.23c1-.77,2.07-2.49,1.79-3.81-.18-.84-1.26-1.81-2.1-1.3a6.75,6.75,0,0,0-1.34,1,3.94,3.94,0,0,0-.86,2.35Z" style="fill: #fff;fill-rule: evenodd"/>
          <path d="M283.1,77.17c-.39.37-.59.49-.69,1a2.15,2.15,0,0,0,.17,1.65,5.87,5.87,0,0,0,3.42,2,3.16,3.16,0,0,0,2.76-.52,4,4,0,0,0,1.77-2.8,2.7,2.7,0,0,0-1.16-2.94,8,8,0,0,0-3.11-1.47,2.72,2.72,0,0,0-2.42.75C283.17,75.37,282.29,76.38,283.1,77.17Z" style="fill: #fff;fill-rule: evenodd"/>
          <path d="M291.88,81.1c0-.33,0-.71.32-.81a2.26,2.26,0,0,1,1.6.64,1.94,1.94,0,0,1,.46,1.24,1.34,1.34,0,0,1-.57.72,1.1,1.1,0,0,1-1.27.09c-.28-.17-1-.53-.85-.94Z" style="fill: #fff;fill-rule: evenodd"/>
          <path d="M265.06,39.52a2.1,2.1,0,0,0,.31,1.41,6.07,6.07,0,0,0,1.87,1.87,5.5,5.5,0,0,0,3.31,1A2.24,2.24,0,0,0,272.27,42a4.57,4.57,0,0,0-.77-3,6,6,0,0,0-4.88-2.47C264.47,36.71,264.4,39.91,265.06,39.52Z" style="fill: #fff;fill-rule: evenodd"/>
          <path d="M274.31,47.05a1.6,1.6,0,0,1-.48-.78c.31-.14.41-.49.75-.61a1.36,1.36,0,0,1,1,.12,1.34,1.34,0,0,1,.75,1.11c0,.56-.19.67-.64.9s-.39.25-.75.06a4.33,4.33,0,0,1-.66-.49Z" style="fill: #fff;fill-rule: evenodd"/>
        </g>
        <g>
          <path d="M204.39,293.21c0,1.73-1,3.14-2.27,3.14s-2.28-1.41-2.28-3.14,1-3.15,2.28-3.15S204.39,291.47,204.39,293.21Z" style="fill-rule: evenodd;fill: url(#Áåçûìÿííûé_ãðàäèåíò_220-3)"/>
          <path d="M203.91,293.21c0,1.36-.8,2.47-1.79,2.47s-1.79-1.11-1.79-2.47.8-2.48,1.79-2.48S203.91,291.84,203.91,293.21Z" style="fill: #fff;fill-rule: evenodd"/>
        </g>
        <g>
          <ellipse cx="292.63" cy="286.67" rx="2.51" ry="3.14" style="fill: url(#Áåçûìÿííûé_ãðàäèåíò_220-4)"/>
          <path d="M294.61,286.67a2,2,0,1,1-2-2.47A2.27,2.27,0,0,1,294.61,286.67Z" style="fill: #fff;fill-rule: evenodd"/>
        </g>
        <g>
          <circle cx="249.57" cy="286.18" r="3.14" style="fill: url(#Áåçûìÿííûé_ãðàäèåíò_220-5)"/>
          <path d="M252,286.18a2.48,2.48,0,1,1-2.47-2.48A2.46,2.46,0,0,1,252,286.18Z" style="fill: #fff;fill-rule: evenodd"/>
        </g>
        <circle cx="250.57" cy="286.18" r="18.28" transform="translate(-111.92 401.44) rotate(-66.43)" style="mix-blend-mode: screen;fill: url(#Áåçûìÿííûé_ãðàäèåíò_217)"/>
        <path d="M338.08,118.38A14.59,14.59,0,1,1,319.2,110,14.59,14.59,0,0,1,338.08,118.38Z" style="mix-blend-mode: screen;fill: url(#radial-gradient)"/>
        <path d="M260.21,19.42a14.59,14.59,0,1,1-18.88-8.34A14.58,14.58,0,0,1,260.21,19.42Z" style="mix-blend-mode: screen;fill: url(#radial-gradient-2)"/>
        <path d="M178.14,119.83a7.54,7.54,0,1,1-9.76-4.31A7.54,7.54,0,0,1,178.14,119.83Z" style="mix-blend-mode: screen;fill: url(#radial-gradient-3)"/>
        <path d="M297.74,284.13a7,7,0,1,1-9.12-4A7,7,0,0,1,297.74,284.13Z" style="mix-blend-mode: screen;fill: url(#Áåçûìÿííûé_ãðàäèåíò_217-2)"/>
        <path d="M207.23,290.66a7.05,7.05,0,1,1-9.12-4A7.06,7.06,0,0,1,207.23,290.66Z" style="mix-blend-mode: screen;fill: url(#Áåçûìÿííûé_ãðàäèåíò_217-3)"/>
      </g>
    </g>
  </g>
</svg>
