<svg id="Layer_2" data-name="Layer 2" xmlns="http://www.w3.org/2000/svg" viewBox="0 0 160 160"><title>a</title><path d="M121.24,33.33l17,21.09a.77.77,0,0,1-.1.93L136,57l-6.21-7.65L127.76,51l6.2,7.64L128.48,63l-3.1-3.82-2.07,1.65,3.1,3.83-5.48,4.44-6.09-7.75-2.07,1.76,6.1,7.65-5.38,4.34-3.1-3.82-2.07,1.65,3.11,3.82L106,81.08l-6.21-7.65-2.06,1.66,6.2,7.65-1.14.93L85.06,61.55l35.26-28.33a.65.65,0,0,1,.92.11ZM39.17,48.83,58.5,33.43l70.91,88.49-19.22,15.4ZM33.69,22.68l2,.83,2,.93h0L45,27.64,56.12,32.5l-8.89,7.13-8.89,7.14-2.28-12-1.54-7.85h0l-.42-2.07ZM78.55,103l-2.69,2.28-6.2-7.76-2.07,1.66,6.21,7.75-5.48,4.34-3.1-3.83-2.07,1.66,3.1,3.82-5.48,4.35-6.1-7.65-2.06,1.65,6.1,7.65-5.38,4.44-3.1-3.93-2.07,1.77,3.1,3.82-5.48,4.34-6.2-7.65-2.07,1.65,6.2,7.65-4,3.21a.66.66,0,0,1-.93-.1L21.8,113a.76.76,0,0,1,.11-.93l39-31.22Z" fill="#333" stroke="#fff" stroke-miterlimit="10" stroke-width="2"/></svg>