<svg xmlns="http://www.w3.org/2000/svg" xmlns:xlink="http://www.w3.org/1999/xlink" viewBox="0 0 980.64 318.58"><defs><linearGradient id="Áåçûìÿííûé_ãðàäèåíò_273" x1="490.32" y1="318.58" x2="490.32" y2="186.9" gradientUnits="userSpaceOnUse"><stop offset="0" stop-color="#a43440"/><stop offset="1" stop-color="#c75225"/></linearGradient><linearGradient id="Áåçûìÿííûé_ãðàäèåíò_273-2" x1="164.81" y1="177.58" x2="164.81" y2="85.81" xlink:href="#Áåçûìÿííûé_ãðàäèåíò_273"/><linearGradient id="Áåçûìÿííûé_ãðàäèåíò_274" x1="110.51" y1="109.39" x2="168.08" y2="109.39" gradientUnits="userSpaceOnUse"><stop offset="0" stop-color="#c75225"/><stop offset="1" stop-color="#a43440"/></linearGradient><linearGradient id="Áåçûìÿííûé_ãðàäèåíò_273-3" x1="124.95" y1="75.59" x2="124.95" y2="46.79" xlink:href="#Áåçûìÿííûé_ãðàäèåíò_273"/><linearGradient id="Áåçûìÿííûé_ãðàäèåíò_273-4" x1="635.29" y1="126.16" x2="635.29" y2="106.2" xlink:href="#Áåçûìÿííûé_ãðàäèåíò_273"/><linearGradient id="Áåçûìÿííûé_ãðàäèåíò_273-5" x1="216.73" y1="85.81" x2="216.73" y2="67.66" xlink:href="#Áåçûìÿííûé_ãðàäèåíò_273"/><linearGradient id="Áåçûìÿííûé_ãðàäèåíò_273-6" x1="636.2" y1="166.3" x2="636.2" y2="127.26" xlink:href="#Áåçûìÿííûé_ãðàäèåíò_273"/><linearGradient id="Áåçûìÿííûé_ãðàäèåíò_273-7" x1="806.42" y1="64.82" x2="806.42" y2="35.48" xlink:href="#Áåçûìÿííûé_ãðàäèåíò_273"/></defs><title>a</title><g style="isolation:isolate"><g id="Layer_1" data-name="Layer 1"><polygon points="0 221.26 192.46 218.15 199.1 224.74 230.48 221.26 243.32 201.7 347.93 199.25 357.56 214.02 588.41 224.07 606.04 217.19 706.11 217.19 712.24 206.22 764.63 186.9 785.01 211.23 907.79 223.24 918.26 227.05 980.64 226.34 980.64 318.58 0 318.58 0 221.26" fill-rule="evenodd" fill="url(#Áåçûìÿííûé_ãðàäèåíò_273)"/><polygon points="243.32 201.7 266.67 210.86 347.93 199.25 243.32 201.7" fill="#ff7c25" fill-rule="evenodd"/><polygon points="357.56 214.02 222.96 237.27 474.44 244.55 706.11 217.19 357.56 214.02" fill="#ff7c25" fill-rule="evenodd"/><polygon points="192.46 218.15 174.36 228.81 0 252.96 0 221.26 192.46 218.15" fill="#ff7c25" fill-rule="evenodd"/><polygon points="0 262.57 181.57 254.6 746.74 262.57 268.6 318.58 0 318.58 0 262.57" fill="#ec5b25" fill-rule="evenodd"/><polygon points="764.63 186.9 750.79 206.22 712.24 206.22 764.63 186.9" fill="#ff7c25" fill-rule="evenodd"/><polygon points="785.01 211.23 677.36 225.83 907.79 223.24 785.01 211.23" fill="#ff7c25" fill-rule="evenodd"/><polygon points="918.26 227.05 813.64 234.72 597.3 248.04 980.64 252.45 980.64 226.34 918.26 227.05" fill="#ec5b25" fill-rule="evenodd"/><polygon points="435.5 318.58 980.64 286.59 980.64 318.58 435.5 318.58" fill="#ec5b25" fill-rule="evenodd"/><polygon points="474.44 244.55 472.09 258.7 593.78 260.41 597.3 248.04 668.8 243.64 677.36 225.83 708.07 221.67 706.11 217.19 474.44 244.55" fill="#a67c4c" fill-rule="evenodd" opacity="0.5" style="mix-blend-mode:multiply"/><polygon points="222.96 237.27 213.51 255.05 181.57 254.6 129.26 255.75 174.36 228.81 192.46 218.15 199.1 224.74 230.48 221.26 243.32 233.62 222.96 237.27" fill="#a67c4c" fill-rule="evenodd" opacity="0.5" style="mix-blend-mode:multiply"/><polygon points="746.74 262.57 759.18 299.59 842.74 294.68 846.8 250.91 708.07 249.46 710.87 260.34 746.74 262.57" fill="#a67c4c" fill-rule="evenodd" opacity="0.5" style="mix-blend-mode:multiply"/><polygon points="885.26 292.19 893.11 251.44 904.2 251.57 894.65 291.64 885.26 292.19" fill="#a67c4c" fill-rule="evenodd" opacity="0.3" style="mix-blend-mode:multiply"/><polygon points="901.93 291.21 912.45 251.67 919.65 251.75 904.04 291.21 901.93 291.21" fill="#a67c4c" fill-rule="evenodd" opacity="0.5" style="mix-blend-mode:multiply"/><polygon points="539.08 286.9 548.48 311.95 539.08 312.5 534.44 287.44 539.08 286.9" fill="#a67c4c" fill-rule="evenodd" opacity="0.3" style="mix-blend-mode:multiply"/><polygon points="543.87 286.34 551.76 311.76 564.53 311.01 564.53 283.92 543.87 286.34" fill="#a67c4c" fill-rule="evenodd" opacity="0.3" style="mix-blend-mode:multiply"/><polygon points="445.69 297.84 467.67 316.69 445.69 316.69 432.75 299.7 445.69 297.84" fill="#a67c4c" fill-rule="evenodd" opacity="0.3" style="mix-blend-mode:multiply"/><polygon points="448.63 243.8 490.32 242.87 472.09 254.47 448.63 243.8" fill="#e05f25" fill-rule="evenodd"/><polygon points="384.89 304.96 407.15 299.7 480.59 293.75 418.56 304.96 384.89 304.96" fill="#cf5325" fill-rule="evenodd"/><polygon points="711.85 266.66 696.83 272.45 686.47 269.63 711.85 266.66" fill="#cf5325" fill-rule="evenodd"/><polygon points="222.96 237.27 249.42 241.03 295.62 239.37 222.96 237.27" fill="#e05f25" fill-rule="evenodd"/><polygon points="532.83 237.65 548.48 237.81 551.38 235.46 532.83 237.65" fill="#e05f25" fill-rule="evenodd"/><polygon points="114.99 132.02 102.72 112.5 125.21 85.81 163.53 86.12 178.35 122.81 182.95 122.81 191.64 109.75 211.57 108.92 226.9 138.92 187.04 176.63 141.56 177.58 109.37 148.84 114.99 132.02" fill-rule="evenodd" fill="url(#Áåçûìÿííûé_ãðàäèåíò_273-2)"/><polygon points="102.72 112.5 124.95 134.57 143.6 132.38 163.53 86.12 125.21 85.81 102.72 112.5" fill="#ff7c25" fill-rule="evenodd"/><polygon points="191.64 109.75 169.32 146.16 175.8 148.84 207.48 137.63 211.57 108.92 191.64 109.75" fill="#ff7c25" fill-rule="evenodd"/><polygon points="159.45 161.67 171.37 153.57 180.74 151.36 180.74 159.66 162 167.03 159.45 161.67" fill="#ff7c25" fill-rule="evenodd"/><polygon points="109.37 148.84 135.77 155.13 151.1 148.84 114.99 132.02 109.37 148.84" fill="#ff7c25" fill-rule="evenodd"/><polygon points="151.1 138.92 154.34 125.1 157.23 128.43 158.08 136.19 151.1 138.92" fill="#ff7c25" fill-rule="evenodd"/><polygon points="134.75 158.59 136.45 156.8 146.33 156.8 144.97 160.2 130.23 161.67 134.75 158.59" fill="#ff7c25" fill-rule="evenodd"/><polygon points="124.95 134.57 125.91 137.11 151.1 148.84 135.77 155.13 136.45 156.8 146.33 156.8 144.97 160.2 152.8 175.29 148.72 162.51 152.8 154.93 166.61 156.8 171.37 153.57 180.74 151.36 180.74 159.66 187.42 175.29 227.79 138.92 203.9 158.59 183.59 146.93 175.8 148.84 169.32 146.16 182.95 122.81 178.35 122.81 163.53 86.12 159.45 102.98 164.81 113.58 153.31 123.8 154.34 125.1 157.23 128.43 158.08 136.19 151.1 138.92 152.12 134.57 143.6 132.38 124.95 134.57" fill="#a67c4c" fill-rule="evenodd" opacity="0.5" style="mix-blend-mode:multiply"/><polygon points="207.48 137.63 220.26 139.79 219 146.16 227.79 138.92 211.57 108.92 207.48 137.63" fill="#a67c4c" fill-rule="evenodd" opacity="0.5" style="mix-blend-mode:multiply"/><polygon points="159.45 102.98 148.2 128.88 164.81 113.58 159.45 102.98" fill="#ff7c25" fill-rule="evenodd"/><polygon points="178.35 122.81 171.71 138.92 158.08 136.19 157.23 128.43 167.79 132.02 164.81 113.58 159.45 102.98 163.53 86.12 178.35 122.81" fill="#a67c4c" fill-rule="evenodd" opacity="0.5" style="mix-blend-mode:multiply"/><polygon points="203.03 139.2 208.17 132.77 210.15 138.08 203.03 139.2" fill="#e05f25" fill-rule="evenodd"/><polygon points="136.98 133.16 146.33 126.06 146.63 133.16 136.98 133.16" fill="#e05f25" fill-rule="evenodd"/><polygon points="132.31 154.3 140.73 153.09 136.45 156.8 132.31 154.3" fill="#e05f25" fill-rule="evenodd"/><polygon points="192.65 142.88 195.56 139.2 199.74 140.37 192.65 142.88" fill="#e05f25" fill-rule="evenodd"/><polygon points="112.06 127.36 110.51 120.23 140.73 96.29 161.26 91.41 168.08 97.38 160.81 91.99 148.2 96.29 124.95 109.62 110.98 120.4 112.06 127.36" fill-rule="evenodd" fill="url(#Áåçûìÿííûé_ãðàäèåíò_274)"/><polygon points="132.11 104.32 140.6 96.98 141.78 96.34 147.34 95.41 147.95 95.79 140.89 99.87 132.11 104.32" fill="#ff7c25" fill-rule="evenodd"/><polygon points="107.1 116.85 116.49 115.5 110.51 120.23 111.28 123.75 107.1 116.85" fill="#e05f25" fill-rule="evenodd"/><polygon points="111.36 58.16 117.1 49.47 132.48 46.79 138.55 71.17 132.48 75.59 111.36 58.16" fill-rule="evenodd" fill="url(#Áåçûìÿííûé_ãðàäèåíò_273-3)"/><polygon points="624.1 118.16 628.52 107.95 637.11 106.2 646.48 118.16 635.29 126.16 624.1 118.16" fill-rule="evenodd" fill="url(#Áåçûìÿííûé_ãðàäèåíò_273-4)"/><polygon points="210.15 85.81 211.57 71.21 219.75 67.66 223.32 74 216.74 85.81 210.15 85.81" fill-rule="evenodd" fill="url(#Áåçûìÿííûé_ãðàäèåíò_273-5)"/><polygon points="111.36 58.16 123.94 61.19 129.58 56.13 132.48 46.79 117.1 48.27 111.36 58.16" fill="#ff7c25" fill-rule="evenodd"/><polygon points="624.1 118.16 632.69 121.71 640.84 114.56 637.11 106.2 628.52 107.95 624.1 118.16" fill="#ff7c25" fill-rule="evenodd"/><polygon points="219.75 67.66 221.02 74.75 215.15 83.56 210.15 85.81 211.57 71.21 219.75 67.66" fill="#ff7c25" fill-rule="evenodd"/><polygon points="640.84 114.56 646.48 118.16 637.11 106.2 640.84 114.56" fill="#a67c4c" fill-rule="evenodd" opacity="0.5" style="mix-blend-mode:multiply"/><polygon points="221.02 74.75 215.15 83.56 216.74 85.81 223.32 74 221.02 74.75" fill="#a67c4c" fill-rule="evenodd" opacity="0.5" style="mix-blend-mode:multiply"/><polygon points="622.03 166.3 625.09 134.91 642.67 127.26 650.36 140.9 636.2 166.3 622.03 166.3" fill-rule="evenodd" fill="url(#Áåçûìÿííûé_ãðàäèåíò_273-6)"/><polygon points="642.67 127.26 645.42 142.5 632.78 161.46 622.03 166.3 625.09 134.91 642.67 127.26" fill="#ff7c25" fill-rule="evenodd"/><polygon points="645.42 142.5 632.78 161.46 636.2 166.3 650.36 140.9 645.42 142.5" fill="#a67c4c" fill-rule="evenodd" opacity="0.5" style="mix-blend-mode:multiply"/><polygon points="123.94 61.19 132.48 75.59 111.36 58.16 123.94 61.19" fill="#a67c4c" fill-rule="evenodd" opacity="0.5" style="mix-blend-mode:multiply"/><polygon points="792.58 47.06 798.43 38.21 814.09 35.48 820.27 60.31 814.09 64.81 792.58 47.06" fill-rule="evenodd" fill="url(#Áåçûìÿííûé_ãðàäèåíò_273-7)"/></g></g></svg>