<svg xmlns="http://www.w3.org/2000/svg" xmlns:xlink="http://www.w3.org/1999/xlink" viewBox="0 0 158.77 318.58"><defs><linearGradient id="linear-gradient" x1="304.19" y1="310.61" x2="304.19" y2="251" gradientTransform="matrix(0.65, 0, 0, 1.33, -116.05, -118.97)" gradientUnits="userSpaceOnUse"><stop offset="0" stop-color="#fff" stop-opacity="0"/><stop offset="0.15" stop-color="#f8fafc" stop-opacity="0.03"/><stop offset="0.32" stop-color="#e2edf1" stop-opacity="0.12"/><stop offset="0.5" stop-color="#bed7e1" stop-opacity="0.27"/><stop offset="0.68" stop-color="#8bb8c9" stop-opacity="0.49"/><stop offset="0.86" stop-color="#4a91ab" stop-opacity="0.76"/><stop offset="1" stop-color="#106d90"/></linearGradient><linearGradient id="Áåçûìÿííûé_ãðàäèåíò_269" x1="117.1" y1="227.91" x2="117.1" y2="174.82" gradientUnits="userSpaceOnUse"><stop offset="0" stop-color="#a43440"/><stop offset="1" stop-color="#c73634"/></linearGradient><linearGradient id="Áåçûìÿííûé_ãðàäèåíò_269-2" x1="45.1" y1="227.91" x2="45.1" y2="174.82" xlink:href="#Áåçûìÿííûé_ãðàäèåíò_269"/><radialGradient id="Áåçûìÿííûé_ãðàäèåíò_229" cx="-18.34" cy="-4567.86" r="47.45" gradientTransform="translate(113.69 10556.38) scale(1.25 2.29)" gradientUnits="userSpaceOnUse"><stop offset="0" stop-color="#f4bab3"/><stop offset="0.77" stop-color="#8d6fc7"/><stop offset="0.96" stop-color="#b695e5"/></radialGradient><radialGradient id="Áåçûìÿííûé_ãðàäèåíò_187" cx="81.28" cy="866.82" r="16" gradientTransform="translate(0 -754.7) scale(1 0.91)" gradientUnits="userSpaceOnUse"><stop offset="0.02" stop-color="#ab5e75"/><stop offset="0.25" stop-color="#9f577b"/><stop offset="0.67" stop-color="#7f458c"/><stop offset="0.99" stop-color="#61349c"/></radialGradient><linearGradient id="Áåçûìÿííûé_ãðàäèåíò_136" x1="80.85" y1="32.43" x2="80.85" y2="25.8" gradientUnits="userSpaceOnUse"><stop offset="0" stop-color="#ffff18"/><stop offset="1" stop-color="#ff7400"/></linearGradient><radialGradient id="Áåçûìÿííûé_ãðàäèåíò_183" cx="80.8" cy="-3643.35" r="28.27" gradientTransform="translate(0 6874.65) scale(1 1.84)" gradientUnits="userSpaceOnUse"><stop offset="0.02" stop-color="#8881bc"/><stop offset="0.29" stop-color="#8375b7"/><stop offset="0.77" stop-color="#7555aa"/><stop offset="0.99" stop-color="#6d43a3"/></radialGradient><radialGradient id="Áåçûìÿííûé_ãðàäèåíò_183-2" cx="80.94" cy="91.09" r="30.06" gradientTransform="matrix(1, 0, 0, 1, 0, 0)" xlink:href="#Áåçûìÿííûé_ãðàäèåíò_183"/><radialGradient id="Áåçûìÿííûé_ãðàäèåíò_176" cx="33.78" cy="-3702.51" r="34.06" gradientTransform="translate(43.17 6874.65) scale(1.1 1.84)" gradientUnits="userSpaceOnUse"><stop offset="0.02" stop-color="#725eb0"/><stop offset="0.38" stop-color="#6d52aa"/><stop offset="0.99" stop-color="#61349c"/></radialGradient><linearGradient id="Áåçûìÿííûé_ãðàäèåíò_129" x1="81.18" y1="109.79" x2="81.18" y2="63.41" gradientUnits="userSpaceOnUse"><stop offset="0" stop-color="#ffff29"/><stop offset="1" stop-color="#ff7e59"/></linearGradient><radialGradient id="Áåçûìÿííûé_ãðàäèåíò_176-2" cx="81.29" cy="-3619.67" r="11.11" gradientTransform="translate(0 6874.65) scale(1 1.84)" xlink:href="#Áåçûìÿííûé_ãðàäèåíò_176"/><radialGradient id="Áåçûìÿííûé_ãðàäèåíò_183-3" cx="81.19" cy="52.1" r="20.46" gradientTransform="matrix(1, 0, 0, 1, 0, 0)" xlink:href="#Áåçûìÿííûé_ãðàäèåíò_183"/><linearGradient id="Áåçûìÿííûé_ãðàäèåíò_220" x1="79.63" y1="150.71" x2="79.63" y2="147.91" gradientUnits="userSpaceOnUse"><stop offset="0" stop-color="#8dc7ff"/><stop offset="0.32" stop-color="#5c4d86"/></linearGradient><radialGradient id="Áåçûìÿííûé_ãðàäèåíò_199" cx="79.83" cy="148.76" r="1.1" gradientUnits="userSpaceOnUse"><stop offset="0.02" stop-color="#8881bc"/><stop offset="0.29" stop-color="#8375b7"/><stop offset="0.77" stop-color="#7555aa"/><stop offset="1" stop-color="#6d43a3"/></radialGradient><linearGradient id="Áåçûìÿííûé_ãðàäèåíò_220-2" x1="79.63" y1="143.8" x2="79.63" y2="141" xlink:href="#Áåçûìÿííûé_ãðàäèåíò_220"/><radialGradient id="Áåçûìÿííûé_ãðàäèåíò_199-2" cx="79.83" cy="141.86" r="1.1" xlink:href="#Áåçûìÿííûé_ãðàäèåíò_199"/><radialGradient id="Áåçûìÿííûé_ãðàäèåíò_259" cx="56.79" cy="94.81" r="1.1" gradientUnits="userSpaceOnUse"><stop offset="0" stop-color="#f4bab3"/><stop offset="1" stop-color="#8d6fc7"/></radialGradient><radialGradient id="Áåçûìÿííûé_ãðàäèåíò_259-2" cx="59.24" cy="75.01" r="1.1" xlink:href="#Áåçûìÿííûé_ãðàäèåíò_259"/><radialGradient id="Áåçûìÿííûé_ãðàäèåíò_259-3" cx="69.88" cy="110.45" r="1.1" xlink:href="#Áåçûìÿííûé_ãðàäèåíò_259"/><radialGradient id="Áåçûìÿííûé_ãðàäèåíò_259-4" cx="91.55" cy="112.14" r="1.1" xlink:href="#Áåçûìÿííûé_ãðàäèåíò_259"/><radialGradient id="Áåçûìÿííûé_ãðàäèåíò_259-5" cx="106.23" cy="99.08" r="1.1" xlink:href="#Áåçûìÿííûé_ãðàäèåíò_259"/><radialGradient id="Áåçûìÿííûé_ãðàäèåíò_259-6" cx="103.98" cy="74.28" r="1.1" xlink:href="#Áåçûìÿííûé_ãðàäèåíò_259"/><radialGradient id="Áåçûìÿííûé_ãðàäèåíò_259-7" cx="92.95" cy="61.5" r="1.1" xlink:href="#Áåçûìÿííûé_ãðàäèåíò_259"/><radialGradient id="Áåçûìÿííûé_ãðàäèåíò_259-8" cx="74.39" cy="59.49" r="1.1" xlink:href="#Áåçûìÿííûé_ãðàäèåíò_259"/><linearGradient id="Áåçûìÿííûé_ãðàäèåíò_246" x1="91.55" y1="227.91" x2="91.55" y2="168.92" gradientUnits="userSpaceOnUse"><stop offset="0" stop-color="#a43411"/><stop offset="1" stop-color="#c73634"/></linearGradient><linearGradient id="Áåçûìÿííûé_ãðàäèåíò_136-2" x1="119.26" y1="82.47" x2="122.75" y2="82.47" xlink:href="#Áåçûìÿííûé_ãðàäèåíò_136"/><linearGradient id="Áåçûìÿííûé_ãðàäèåíò_136-3" x1="40.16" y1="81.52" x2="43.45" y2="81.52" xlink:href="#Áåçûìÿííûé_ãðàäèåíò_136"/><linearGradient id="Áåçûìÿííûé_ãðàäèåíò_220-3" x1="57.76" y1="170.37" x2="57.76" y2="167.14" xlink:href="#Áåçûìÿííûé_ãðàäèåíò_220"/><linearGradient id="Áåçûìÿííûé_ãðàäèåíò_220-4" x1="104.33" y1="167.01" x2="104.33" y2="163.78" xlink:href="#Áåçûìÿííûé_ãðàäèåíò_220"/><linearGradient id="Áåçûìÿííûé_ãðàäèåíò_220-5" x1="82.18" y1="166.76" x2="82.18" y2="163.52" xlink:href="#Áåçûìÿííûé_ãðàäèåíò_220"/><radialGradient id="Áåçûìÿííûé_ãðàäèåíò_217" cx="-15.1" cy="-68.65" r="6.39" gradientTransform="matrix(1.04, 1.04, -1.04, 1.04, 26.61, 252)" gradientUnits="userSpaceOnUse"><stop offset="0" stop-color="#003cee"/><stop offset="0.06" stop-color="#0036d6"/><stop offset="0.2" stop-color="#00289e"/><stop offset="0.34" stop-color="#001c6d"/><stop offset="0.48" stop-color="#001246"/><stop offset="0.62" stop-color="#000a27"/><stop offset="0.75" stop-color="#000412"/><stop offset="0.88" stop-color="#000104"/><stop offset="1"/></radialGradient><radialGradient id="radial-gradient" cx="29.55" cy="-112.33" r="5.1" gradientTransform="translate(139.88 251.27) rotate(-21.18) scale(1.47)" gradientUnits="userSpaceOnUse"><stop offset="0" stop-color="#ff9a00"/><stop offset="0.09" stop-color="#ffaa29" stop-opacity="0.84"/><stop offset="0.23" stop-color="#ffc161" stop-opacity="0.62"/><stop offset="0.36" stop-color="#ffd491" stop-opacity="0.43"/><stop offset="0.5" stop-color="#ffe3b9" stop-opacity="0.27"/><stop offset="0.63" stop-color="#ffefd8" stop-opacity="0.15"/><stop offset="0.76" stop-color="#fff8ed" stop-opacity="0.07"/><stop offset="0.89" stop-color="#fffdfb" stop-opacity="0.02"/><stop offset="1" stop-color="#fff" stop-opacity="0"/></radialGradient><radialGradient id="radial-gradient-2" cx="16.66" cy="-154.45" r="5.1" xlink:href="#radial-gradient"/><radialGradient id="radial-gradient-3" cx="-20.34" cy="-132.07" r="2.64" xlink:href="#radial-gradient"/><radialGradient id="Áåçûìÿííûé_ãðàäèåíò_217-2" cx="-1.92" cy="-63.36" r="2.47" gradientTransform="translate(139.88 251.27) rotate(-21.18) scale(1.47)" xlink:href="#Áåçûìÿííûé_ãðàäèåíò_217"/><radialGradient id="Áåçûìÿííûé_ãðàäèåíò_217-3" cx="-32.27" cy="-72.67" r="2.47" gradientTransform="translate(139.88 251.27) rotate(-21.18) scale(1.47)" xlink:href="#Áåçûìÿííûé_ãðàäèåíò_217"/></defs><title>a</title><g style="isolation:isolate"><g id="Layer_1" data-name="Layer 1"><path d="M63.94,216.94l2.25,78.75,32.18-2.85L99,217.27S73.44,215.24,63.94,216.94Z" fill="url(#linear-gradient)" style="mix-blend-mode:screen"/><path d="M112.06,177.31l13.48-2.49s2.16,25.08-14,53.09h-1.28l1-37.54-2.7-.1Z" fill-rule="evenodd" fill="url(#Áåçûìÿííûé_ãðàäèåíò_269)"/><path d="M50.51,177.38l-13.84-2.56s-2.16,25.08,14,53.09H52l-1-37.54,2.69-.1Z" fill-rule="evenodd" fill="url(#Áåçûìÿííûé_ãðàäèåíò_269-2)"/><path d="M81.23,31.67c-17.45,0-44.78,42.08-42.57,81.21s20.21,96.63,20.21,96.63l22.36.22,22.35-.22s18-57.49,20.21-96.63S98.56,31.67,81.23,31.67Z" fill-rule="evenodd" fill="url(#Áåçûìÿííûé_ãðàäèåíò_229)"/><path d="M58.87,209.51s25.45-2.26,44.71,0C103.58,209.51,78.61,212,58.87,209.51Z" fill="#31165f" fill-rule="evenodd"/><path d="M57.78,49.39s24.73-7.84,48.25,2c0,0-12.14-19.64-24.8-19.76C69.84,31.57,57.78,49.39,57.78,49.39Z" fill-rule="evenodd" fill="url(#Áåçûìÿííûé_ãðàäèåíò_187)"/><path d="M105.9,51.72c-21.84-9.43-47.77-2.11-48-2l-.17-.6c.26-.08,26.4-7.46,48.45,2Z" fill="#53345f"/><path d="M75.36,33.06l13.07.66S81.8,29,75.36,33.06Z" fill="#53345f" fill-rule="evenodd"/><path d="M77.17,32.43a27.46,27.46,0,0,1,7.35-.19S83.09,26,80.85,25.8,77.17,32.43,77.17,32.43Z" fill-rule="evenodd" fill="url(#Áåçûìÿííûé_ãðàäèåíò_136)"/><path d="M48.53,171.51s37.72-12.37,66.26-3.68c-3.71,16.35-11.21,41.68-11.21,41.68s-17.08-2.4-44.71,0A256.89,256.89,0,0,1,48.53,171.51Z" fill-rule="evenodd" opacity="0.5" fill="url(#Áåçûìÿííûé_ãðàäèåíò_183)" style="mix-blend-mode:multiply"/><path d="M79.77,60C64,61.19,52.81,80,52.09,96.34s14.24,26.38,30.21,25.93,29.18-11.43,27.35-29.36C108,76.69,97.25,58.6,79.77,60Z" fill-rule="evenodd" opacity="0.5" fill="url(#Áåçûìÿííûé_ãðàäèåíò_183-2)" style="mix-blend-mode:multiply"/><path d="M79.77,57.36c-15.75,1.22-27,20-27.68,36.38s14.24,26.38,30.21,25.93,29.18-11.44,27.35-29.37C108,74.09,97.25,56,79.77,57.36Z" fill="#31165f" fill-rule="evenodd"/><path d="M79.77,55.54c-15.75,1.23-27,20-27.68,36.38S66.33,118.3,82.3,117.85s29.18-11.44,27.35-29.37C108,72.27,97.25,54.18,79.77,55.54Z" fill-rule="evenodd" fill="url(#Áåçûìÿííûé_ãðàäèåíò_176)"/><path d="M80.81,61.36C66.7,62.22,59.63,77,59.06,89.76S70.26,110.35,82.8,110s22.93-8.93,21.49-22.93C103,74.42,95.55,60.45,80.81,61.36Z" fill="#a6345f" fill-rule="evenodd"/><path d="M96,105.41h0a23.16,23.16,0,0,1-13.24,4.35c-11.93.33-24.2-7.86-23.67-20A33.51,33.51,0,0,1,61.87,77.7c3.31-7.5,9.61-13.47,19-14.22C94.68,62.37,102,75.91,103.19,88,104,95.7,101,101.69,96,105.41Z" fill-rule="evenodd" fill="url(#Áåçûìÿííûé_ãðàäèåíò_129)"/><rect x="82.02" y="119.67" width="0.31" height="45.48" fill="#53345f"/><path d="M48.58,171.66l-.09-.3c43.15-12.49,66.13-3.76,66.36-3.67l-.11.29C114.51,167.89,91.61,159.2,48.58,171.66Z" fill="#53345f"/><path d="M45.19,156.5l-.17-.27c.13-.08,13.47-8.75,37.15-10l0,.32C58.59,147.79,45.32,156.41,45.19,156.5Z" fill="#53345f"/><polygon points="87.38 197.86 86.75 178.24 92.11 176.87 91.59 197.86 87.38 197.86" fill="#31165f" fill-rule="evenodd"/><path d="M62.57,209.91a239.21,239.21,0,0,1,38.44-.18l-1.15,8.8-36.22-1Z" fill-rule="evenodd" fill="url(#Áåçûìÿííûé_ãðàäèåíò_176-2)"/><path d="M63.11,213.77a33.56,33.56,0,0,1,15.28-3.37c8.72.19,21.74,6.09,21.74,6.09l.88-6.76s-20.73-2-38.44.18Z" fill="#31165f" fill-rule="evenodd" opacity="0.5"/><path d="M89.5,68.85a33.24,33.24,0,0,1,6.26,8.72l3-1.76s-2.33-5.6-6.67-7.58Z" fill="#fff"/><polygon points="63.46 93.73 65.96 98.14 63.46 99.62 61.66 95.94 63.46 93.73" fill="#fff"/><path d="M52.73,57.33s24.74-12.76,56.93,0L106,51.43s-18.6-8.72-48.25-2Z" fill-rule="evenodd" opacity="0.5" fill="url(#Áåçûìÿííûé_ãðàäèåíò_183-3)" style="mix-blend-mode:multiply"/><path d="M81,149.31a1.4,1.4,0,1,1-1.4-1.4A1.4,1.4,0,0,1,81,149.31Z" fill-rule="evenodd" fill="url(#Áåçûìÿííûé_ãðàäèåíò_220)"/><circle cx="79.63" cy="149.31" r="1.1" fill="url(#Áåçûìÿííûé_ãðàäèåíò_199)"/><path d="M81,142.4a1.4,1.4,0,1,1-1.4-1.4A1.4,1.4,0,0,1,81,142.4Z" fill-rule="evenodd" fill="url(#Áåçûìÿííûé_ãðàäèåíò_220-2)"/><circle cx="79.63" cy="142.4" r="1.1" fill="url(#Áåçûìÿííûé_ãðàäèåíò_199-2)"/><circle cx="56.59" cy="95.36" r="1.4" fill="#31165f"/><circle cx="56.59" cy="95.36" r="1.1" fill="url(#Áåçûìÿííûé_ãðàäèåíò_259)"/><path d="M60.44,75.55a1.4,1.4,0,1,1-1.39-1.4A1.39,1.39,0,0,1,60.44,75.55Z" fill="#31165f" fill-rule="evenodd"/><circle cx="59.05" cy="75.55" r="1.1" fill="url(#Áåçûìÿííûé_ãðàäèåíò_259-2)"/><path d="M71.09,111a1.4,1.4,0,1,1-1.4-1.4A1.4,1.4,0,0,1,71.09,111Z" fill="#31165f" fill-rule="evenodd"/><circle cx="69.69" cy="111" r="1.1" fill="url(#Áåçûìÿííûé_ãðàäèåíò_259-3)"/><circle cx="91.36" cy="112.68" r="1.4" fill="#31165f"/><circle cx="91.36" cy="112.68" r="1.1" fill="url(#Áåçûìÿííûé_ãðàäèåíò_259-4)"/><circle cx="106.03" cy="99.62" r="1.4" fill="#31165f"/><circle cx="106.03" cy="99.62" r="1.1" fill="url(#Áåçûìÿííûé_ãðàäèåíò_259-5)"/><circle cx="103.78" cy="74.83" r="1.4" fill="#31165f"/><circle cx="103.78" cy="74.83" r="1.1" fill="url(#Áåçûìÿííûé_ãðàäèåíò_259-6)"/><path d="M94.15,62a1.4,1.4,0,1,1-1.39-1.4A1.4,1.4,0,0,1,94.15,62Z" fill="#31165f" fill-rule="evenodd"/><circle cx="92.76" cy="62.04" r="1.1" fill="url(#Áåçûìÿííûé_ãðàäèåíò_259-7)"/><path d="M75.59,60a1.4,1.4,0,1,1-1.4-1.4A1.4,1.4,0,0,1,75.59,60Z" fill="#31165f" fill-rule="evenodd"/><circle cx="74.19" cy="60.04" r="1.1" fill="url(#Áåçûìÿííûé_ãðàäèåíò_259-8)"/><polygon points="51.96 227.91 52.99 227.91 51.96 190.33 50.94 190.37 51.96 227.91" fill="#6f2561" fill-rule="evenodd"/><polygon points="111.27 190.37 110.25 190.33 109.55 227.91 110.25 227.91 111.27 190.37" fill="#6f2561" fill-rule="evenodd"/><polygon points="90.99 168.92 94.67 168.92 90.99 227.91 88.43 227.91 90.99 168.92" fill-rule="evenodd" fill="url(#Áåçûìÿííûé_ãðàäèåíò_246)"/><polygon points="90.99 168.92 88.43 181.98 88.43 227.91 90.99 168.92" fill="#ff4c61" fill-rule="evenodd"/><polygon points="94.56 170.74 103.58 209.51 94.67 209.02 94.56 218.38 91.59 218.38 94.56 170.74" fill="#31165f" fill-rule="evenodd" opacity="0.5"/><path d="M49.92,68.6s-.36-4.06,2.21-6.56l2.09.1A67.85,67.85,0,0,1,51,68.6Z" fill="#fff"/><polygon points="114.79 157.88 118.65 140.33 119.72 140.33 116.06 157.88 114.79 157.88" fill="#fff" style="mix-blend-mode:soft-light"/><path d="M119.26,79.37S125.77,78,121,85.66Z" fill-rule="evenodd" fill="url(#Áåçûìÿííûé_ãðàäèåíò_136-2)"/><path d="M43.45,78.5s-6,1.79-1.75,6Z" fill-rule="evenodd" fill="url(#Áåçûìÿííûé_ãðàäèåíò_136-3)"/><path d="M65.19,208.87s-16.81-52-23.38-90.77l-1.65.81s7.9,59.52,19.61,90.52Z" fill="#fff" fill-rule="evenodd" opacity="0.5" style="mix-blend-mode:soft-light"/><polygon points="119.24 136.35 121.17 125.53 122.2 125.53 120.26 136.35 119.24 136.35" fill="#fff" fill-rule="evenodd" style="mix-blend-mode:soft-light"/><path d="M51.44,153.91s11.14-5,21.75-6C73.19,147.91,62.62,150.27,51.44,153.91Z" fill="#fff" fill-rule="evenodd" style="mix-blend-mode:soft-light"/><path d="M82.69,123.9,83,163.77S83.65,149.31,82.69,123.9Z" fill="#fff" fill-rule="evenodd" style="mix-blend-mode:soft-light"/><path d="M56.59,169.86s26.54-7.8,52-2.8C108.57,167.06,89.71,162.44,56.59,169.86Z" fill="#fff" fill-rule="evenodd" style="mix-blend-mode:soft-light"/><path d="M62.52,65.19s3.62,1.46,5.73-5.3A32,32,0,0,0,62.52,65.19Z" fill="#fff" fill-rule="evenodd"/><path d="M85.46,117.62s8.69-.46,19-9.88A27.59,27.59,0,0,1,85.46,117.62Z" fill="#fff" fill-rule="evenodd" style="mix-blend-mode:soft-light"/><path d="M82.18,110s7.58,4.07,12.76-3.39C94.94,106.62,90.92,110.21,82.18,110Z" fill="#fff" fill-rule="evenodd" style="mix-blend-mode:soft-light"/><g opacity="0.36" style="mix-blend-mode:soft-light"><path d="M80.7,127.08c-.45.3-1.31.73-1.17,1.42a8.71,8.71,0,0,0,.36.89,3.9,3.9,0,0,1,.16.84,2.61,2.61,0,0,0,.51,1.27c.21.22.43,0,.57-.22a1.63,1.63,0,0,0,.33-.75,5.5,5.5,0,0,1,.12-1.08c0-.14.14-.26.18-.41a2.32,2.32,0,0,0,0-.59A1.49,1.49,0,0,0,80.7,127.08Z" fill="#fff" fill-rule="evenodd"/><path d="M78.87,132.78a.42.42,0,0,1,.1-.46c.67,0,.91,1.34.28,1.6s-.82-.7-.59-1.14Z" fill="#fff" fill-rule="evenodd"/><path d="M66.49,141.29c.36-.17.65-.41,1-.32a1.59,1.59,0,0,1,.82.52,2.9,2.9,0,0,1,.5,1.1,1,1,0,0,1,.1.57,2.74,2.74,0,0,1-1.83,1.58,6,6,0,0,1-1.24.32c-.29,0-.59.06-.89.11a1.5,1.5,0,0,1-.73.08,1.89,1.89,0,0,1-.57-.32,1.8,1.8,0,0,1-.75-1.48c0-1,1.27-1.86,2.11-2.27C65.73,140.83,66.82,140.41,66.49,141.29Z" fill="#fff" fill-rule="evenodd"/><path d="M69.72,139.89c-.1.29-.18.38,0,.54a.71.71,0,0,0,.6,0c.36-.12.81-.66.55-1-.14-.19-.46-.52-.68-.54a1.06,1.06,0,0,0-.95,1Z" fill="#fff" fill-rule="evenodd"/><path d="M83.18,150a1.24,1.24,0,0,0-.06.47v1.2c0,.75-.1,1.5-.11,2.26a11.14,11.14,0,0,0,.18,1.63c0,.28.1.57.16.84.07,0,.08-.16.1-.22.1-.21.15-.44.26-.64.25-.45.5-.92.71-1.39a1.45,1.45,0,0,1,.11-.26,3.45,3.45,0,0,1,.26-.28,2.21,2.21,0,0,0,.37-.55,3.71,3.71,0,0,0,.17-1.55c0-.17,0-.34-.06-.51a5.25,5.25,0,0,0,0-.56,3.2,3.2,0,0,0-.45-1.1c-.23-.4-.49-1.1-1-1.21-.25-.06-.34.22-.38.42s-.05.52-.09.78S83.15,150,83.18,150Z" fill="#fff" fill-rule="evenodd"/><path d="M83.71,146.4c.12-.19.27-.54.56-.48s.29.46.25.68c-.07.52-.74,0-.7-.36Z" fill="#fff" fill-rule="evenodd"/><path d="M88.83,149.68a.92.92,0,0,0-.14.62.57.57,0,0,0,.62.46c.48,0,.81-.1.91-.59a1.29,1.29,0,0,0-.37-1,.65.65,0,0,0-.39-.16c-.3,0-.44.21-.58.44Z" fill="#fff" fill-rule="evenodd"/><path d="M99.59,164.7a9.86,9.86,0,0,1,2.24-.82,20.56,20.56,0,0,1,2.07-.14,20.1,20.1,0,0,0,2.84-.65,5.12,5.12,0,0,1,2.49-.11,2.52,2.52,0,0,1,1.63,1.18,3.59,3.59,0,0,1,.34,1.2c0,.2,0,.38.07.57a2,2,0,0,1,0,.35c0,.19-.08.19-.25.19a1.54,1.54,0,0,1-.87-.21,4.46,4.46,0,0,0-1.51-.49c-.5-.09-1-.21-1.49-.27l-1.5-.19c-.43-.05-.86-.13-1.28-.19s-.86-.06-1.28-.09-.71,0-1.07,0-.43,0-.66,0a2.15,2.15,0,0,1-.51,0,4.34,4.34,0,0,0-.51,0A3.48,3.48,0,0,1,99.59,164.7Z" fill="#fff" fill-rule="evenodd"/><path d="M104.16,161.57c-.11.1-.25.18-.28.31a.89.89,0,0,0,0,.23c.08.31.61.33.87.33a3,3,0,0,0,2.07-.73,1.75,1.75,0,0,0,.54-1.4,1.82,1.82,0,0,0-1.48-1.19,2,2,0,0,0-1.84.3,1,1,0,0,0-.32.59c0,.18.06.35.06.53s-.12.45,0,.68A.83.83,0,0,0,104.16,161.57Z" fill="#fff" fill-rule="evenodd"/><path d="M108.47,161.63a.34.34,0,0,1,.09-.38.33.33,0,0,1,.39-.15.47.47,0,0,1,.33.64.6.6,0,0,1-.47.27.45.45,0,0,1-.45-.33Z" fill="#fff" fill-rule="evenodd"/><path d="M114,146c-.29.14-.4.18-.55.44a.35.35,0,0,0,0,.38,1.88,1.88,0,0,0,1,.86,1.11,1.11,0,0,0,.86-.07,2.8,2.8,0,0,0,.57-.57c.15-.17.28-.35.42-.54a.92.92,0,0,0,.17-1.07,1.25,1.25,0,0,0-1-.56,1.86,1.86,0,0,0-.8.27A.86.86,0,0,0,114,146Z" fill="#fff" fill-rule="evenodd"/><path d="M112.56,147.64a1.67,1.67,0,0,1,.62.16c0,.1.11.15.07.27s-.32.11-.45.11a.7.7,0,0,1-.43-.19c0-.05-.22-.23-.08-.25Z" fill="#fff" fill-rule="evenodd"/><path d="M93.13,160.23c-.13.25-.28.52,0,.79a.81.81,0,0,0,.91.07c.14-.07.31-.14.33-.3a4.51,4.51,0,0,0,0-.52c0-.41.42-.69,0-1.08a.89.89,0,0,0-.69-.25c-.41.08-.61.51-.75.86Z" fill="#fff" fill-rule="evenodd"/><path d="M60.52,175.14a2.6,2.6,0,0,0-1.21.65l0,.18a1.14,1.14,0,0,0,0,.94c.48.92,1.43.81,2.3.81s2.12.1,1.69-1.19a3.8,3.8,0,0,0-1-1.92c-.29-.2-.44-.11-.72,0a3.2,3.2,0,0,0-1.1.53Z" fill="#fff" fill-rule="evenodd"/><path d="M71.18,176.59c.14-.25.35-.74.71-.78s.4.14.62.29c.47.34.92.78.45,1.39a1.28,1.28,0,0,1-1.06.38c-.31-.05-.83-.43-.72-.8Z" fill="#fff" fill-rule="evenodd"/><path d="M115.73,95.22a1.44,1.44,0,0,0-.17,1.46,3.43,3.43,0,0,0,.66,1.57c.53.55,1.26.42,1.93.56a1.29,1.29,0,0,0,1.29-.21,5,5,0,0,0,1.16-1.37,6.67,6.67,0,0,0,.13-5.58A4.34,4.34,0,0,0,118.32,89a2.93,2.93,0,0,0-2.92.74,3.34,3.34,0,0,0-.7,3c.07.24.13.48.2.73a4.3,4.3,0,0,1,0,1C115,94.73,115.14,95,115.73,95.22Z" fill="#fff" fill-rule="evenodd"/><path d="M113.8,98c.67.53.57.44.68,1.12,0,.3.16.37.1.65a1,1,0,0,1-1,.66c-.29,0-.73-.57-.85-.78a.77.77,0,0,1,0-.85Z" fill="#fff" fill-rule="evenodd"/><path d="M45.83,97.8c-.15.59-.34,1.29.31,1.69a1.5,1.5,0,0,0,1.51-.31A4,4,0,0,0,48.89,97c.1-.74-.8-1.54-1.49-1.62-1.39-.18-2.14,2-2.22,3.08Z" fill="#fff" fill-rule="evenodd"/><path d="M44.86,104.26c-.08-.16-.41-.64-.36-.85s.14-.11.19-.19a1,1,0,0,1,.69-.58,1.43,1.43,0,0,1,1.59.73.88.88,0,0,1-.1,1.13,1.11,1.11,0,0,1-1.53.08Z" fill="#fff" fill-rule="evenodd"/><path d="M106.69,179.17a5,5,0,0,0-.2,3.17c.13.68.23,1.59,1,1.9,1.73.71,3-3,3.38-4.18a7.47,7.47,0,0,0,.2-3.16,3.71,3.71,0,0,0-1.2-2.17,1.78,1.78,0,0,0-2.14.71c-1.09,1.42-.81,3.25-1.32,4.86Z" fill="#fff" fill-rule="evenodd"/><path d="M105.81,178.93a4.22,4.22,0,0,0-1.24.27c-.19.13-.49.32-.55.55a1,1,0,0,0,.37.83.64.64,0,0,0,.61.19c.15-.06.28-.28.38-.41a4.29,4.29,0,0,0,.43-.79,2.38,2.38,0,0,0,.16-.4c0-.22-.11-.3-.16-.48Z" fill="#fff" fill-rule="evenodd"/><path d="M104.84,188l.58.27c0,.23,0,.49-.18.64a1.13,1.13,0,0,1-.73.05.57.57,0,0,1-.4-.56c0-.3.29-.43.57-.48Z" fill="#fff" fill-rule="evenodd"/><path d="M78,200.16a.62.62,0,0,0,.1.73.88.88,0,0,0,1.18.12,2.35,2.35,0,0,0,.93-2c-.09-.43-.65-.93-1.08-.67a3.44,3.44,0,0,0-.69.49,2,2,0,0,0-.44,1.21Z" fill="#fff" fill-rule="evenodd"/><path d="M99.43,57.6c-.2.19-.31.25-.35.51a1.09,1.09,0,0,0,.08.85,3,3,0,0,0,1.76,1,1.63,1.63,0,0,0,1.42-.27,2.05,2.05,0,0,0,.91-1.44,1.4,1.4,0,0,0-.59-1.51,4.29,4.29,0,0,0-1.6-.76,1.42,1.42,0,0,0-1.25.39C99.47,56.68,99,57.2,99.43,57.6Z" fill="#fff" fill-rule="evenodd"/><path d="M104,59.62c0-.17,0-.36.16-.41a1.1,1.1,0,0,1,.82.33.92.92,0,0,1,.24.63.6.6,0,0,1-.29.37.58.58,0,0,1-.66.05c-.14-.08-.49-.27-.43-.48Z" fill="#fff" fill-rule="evenodd"/><path d="M90.15,38.23a1.1,1.1,0,0,0,.16.73,3.14,3.14,0,0,0,1,1,2.8,2.8,0,0,0,1.7.5,1.16,1.16,0,0,0,.89-.9,2.36,2.36,0,0,0-.4-1.55A3,3,0,0,0,91,36.69C89.85,36.79,89.81,38.43,90.15,38.23Z" fill="#fff" fill-rule="evenodd"/><path d="M94.91,42.11a.9.9,0,0,1-.25-.4c.16-.08.21-.26.39-.32a.7.7,0,0,1,.53.06A.68.68,0,0,1,96,42c0,.29-.09.35-.33.47s-.2.12-.38,0a2.08,2.08,0,0,1-.34-.24Z" fill="#fff" fill-rule="evenodd"/></g><path d="M58.93,168.76c0,.89-.52,1.61-1.17,1.61s-1.17-.72-1.17-1.61.53-1.62,1.17-1.62S58.93,167.86,58.93,168.76Z" fill-rule="evenodd" fill="url(#Áåçûìÿííûé_ãðàäèåíò_220-3)"/><path d="M58.68,168.76c0,.7-.41,1.27-.92,1.27s-.92-.57-.92-1.27.41-1.28.92-1.28S58.68,168.05,58.68,168.76Z" fill="#fff" fill-rule="evenodd"/><ellipse cx="104.33" cy="165.39" rx="1.29" ry="1.62" fill="url(#Áåçûìÿííûé_ãðàäèåíò_220-4)"/><path d="M105.35,165.39a1,1,0,1,1-1-1.27A1.17,1.17,0,0,1,105.35,165.39Z" fill="#fff" fill-rule="evenodd"/><circle cx="82.18" cy="165.14" r="1.62" fill="url(#Áåçûìÿííûé_ãðàäèåíò_220-5)"/><path d="M83.45,165.14a1.28,1.28,0,1,1-1.27-1.27A1.27,1.27,0,0,1,83.45,165.14Z" fill="#fff" fill-rule="evenodd"/><circle cx="82.69" cy="165.14" r="9.41" transform="translate(-101.74 174.92) rotate(-66.43)" fill="url(#Áåçûìÿííûé_ãðàäèåíò_217)" style="mix-blend-mode:screen"/><path d="M127.72,78.8A7.51,7.51,0,1,1,118,74.52,7.51,7.51,0,0,1,127.72,78.8Z" fill="url(#radial-gradient)" style="mix-blend-mode:screen"/><path d="M87.65,27.89a7.51,7.51,0,1,1-9.71-4.29A7.5,7.5,0,0,1,87.65,27.89Z" fill="url(#radial-gradient-2)" style="mix-blend-mode:screen"/><path d="M45.42,79.55a3.88,3.88,0,1,1-5-2.22A3.87,3.87,0,0,1,45.42,79.55Z" fill="url(#radial-gradient-3)" style="mix-blend-mode:screen"/><path d="M107,164.08a3.62,3.62,0,1,1-4.69-2.07A3.63,3.63,0,0,1,107,164.08Z" fill="url(#Áåçûìÿííûé_ãðàäèåíò_217-2)" style="mix-blend-mode:screen"/><path d="M60.39,167.45a3.62,3.62,0,1,1-4.69-2.07A3.62,3.62,0,0,1,60.39,167.45Z" fill="url(#Áåçûìÿííûé_ãðàäèåíò_217-3)" style="mix-blend-mode:screen"/></g></g></svg>