<svg id="Layer_2" data-name="Layer 2" xmlns="http://www.w3.org/2000/svg" xmlns:xlink="http://www.w3.org/1999/xlink" viewBox="0 0 200 200"><defs><linearGradient id="linear-gradient" x1="100" y1="153.8" x2="100" y2="46.2" gradientUnits="userSpaceOnUse"><stop offset="0"/><stop offset="1" stop-color="#606161"/></linearGradient></defs><title>a</title><path d="M31.91,71.11H168.09a4.6,4.6,0,0,1,4.6,4.6v73.5a4.59,4.59,0,0,1-4.6,4.59H31.91a4.59,4.59,0,0,1-4.6-4.59V75.71A4.6,4.6,0,0,1,31.91,71.11Zm55.57,60L54.08,116.7v-8L87.48,94.3v9.41l-23.33,8.88,23.33,9.28Zm3,6.5,12.06-50.23h7l-12.2,50.23Zm22.13-6.37v-9.4l23.19-9.15-23.19-9V94.3l33.27,14.45v8Zm-79-85.07H166.36a6.33,6.33,0,0,1,6.33,6.33V60.8a6.33,6.33,0,0,1-6.33,6.33H33.64a6.33,6.33,0,0,1-6.33-6.33V52.53A6.33,6.33,0,0,1,33.64,46.2Zm97.57,8.74h7.95v7.43h-7.95Zm13,0h8v7.43h-8Zm13,0h7.95v7.43h-7.95Z" fill-rule="evenodd" fill="url(#linear-gradient)"/></svg>