<svg id="Layer_2" data-name="Layer 2" xmlns="http://www.w3.org/2000/svg" viewBox="0 0 160 160"><title>a</title><path d="M145.8,43v80.71H115.18v-.13l-2.25.13-2.65-.13v.13H49.72v-.13l-2.25.13-2.65-.13v.13H14.2V43ZM14.2,134.73V128c0-.13,0-.13.14-.13H15v3.44h.81v-3.44h1.85v1.72h.66v-1.72h1.85v3.44h.67v-3.44h1.85v1.72h.66v-1.72l1.86-.14v3.58H26V127.7h1.85v1.73h.66V127.7h1.86v3.58H31V127.7h1.86v1.73h.66V127.7h1.86v3.45h.79V127.7h1.72l.14,1.73h.66V127.7h1.85v3.45h.67V127.7h1.85v1.73h.66V127.7h1.86v3.45h.8V127.7h1.72v3.45h.79V127.7h1.86v1.73h.66V127.7H53.3v3.45H54V127.7h1.85v1.73h.67V127.7h1.85v3.45h.8V127.7h1.72v1.73h.8V127.7H63.5v3.58h.66V127.7H66v1.73h.66V127.7h1.85v3.58h.67l.14-3.58,1.71.14v1.72h.8v-1.72H73.7v3.44h.66v-3.44h1.86v1.72h.67v-1.72h1.45v3.44H79v-3.44h1.46v3.44h.79v-3.44h1.85v1.72h.66v-1.72h1.86v3.44h.66v-3.44h1.86v1.72h.66v-1.72l1.85-.14v3.58h.8V127.7h1.85v1.73H94V127.7h1.85v3.58h.67V127.7h1.85v1.73H99V127.7h1.85v3.45h.8V127.7h1.85v1.73h.67V127.7H106v3.45h.66V127.7h1.85v1.73h.67V127.7h1.85v3.45h.8V127.7h1.72v3.45h.8V127.7h1.85v1.73h.67V127.7h1.85v3.45h.67V127.7h1.85v1.73h.66V127.7h1.86v3.45h.8V127.7h1.85v1.73h.66V127.7H129v3.58h.66V127.7h1.85v1.73h.67V127.7H134v3.58h.79V127.7l1.86.14-.13,1.72h.8v-1.72h1.85v3.44h.67v-3.44h1.85v1.72h.66v-1.72h1.86v3.44h.66l.13-3.44h.66c.14,0,.14,0,.14.13v6.76Zm.26-13.65h6.63a.46.46,0,0,0,.27-.13v-.8H17.92v-.66h3.44v-1.86H19.63V117h1.73v-1.85H17.92v-.66h3.44V112.6H19.63v-.8h1.73V110H17.92v-.66h3.44v-1.86H19.63v-.66h1.73v-1.86H17.92v-.66h3.44v-1.86H19.63v-.79h1.73l.13-1.72-3.57-.13v-.67h3.57V97.23H19.63l.14-.67h1.72V94.71H17.92v-.66h3.57V92.19H19.77V91.4l1.72.13V89.67H18v-.79h3.45v-.4h0v-.93h0V87L18,87.15v-.79h3.45V84.51H19.77v-.66h1.72V82H17.92v-.67h3.57V79.47H19.77l-.14-.79h1.86V77H17.92v-.79h3.57l-.13-1.86H19.63v-.66h1.73V71.78H17.92v-.66h3.44V69.27H19.63V68.6h1.73V66.75H17.92V66h3.44V64.1H19.63v-.67h1.73V61.58H17.92v-.66h3.44V59.06H19.63V58.4h1.73V56.94H17.92v-.66h3.44V54.69H17.92V54h3.44V52.17H19.63v-.66h1.73V49.65H17.92V49h3.44V47.13H19.63v-.79h1.73V44.49H17.92v-.67h3.44V43h-6.9ZM14.2,25.27H145.8V38.91H14.2Zm105.23,6h5.69v5.7h-5.69Zm7,0h5.7v5.7h-5.7Zm7,0h5.7v5.7h-5.7ZM32,54H61V83.18H32ZM67.87,70.72h29V99.88h-29Zm35.92,16.83h29v29.16h-29Z" fill="#333" stroke="#fff" stroke-miterlimit="10" stroke-width="2"/></svg>