<svg id="Layer_2" data-name="Layer 2" xmlns="http://www.w3.org/2000/svg" viewBox="0 0 160 160"><title>a</title><path d="M112.5,35.51s19.27,11.48,12,40.05" fill="none" stroke="#333" stroke-linecap="round" stroke-linejoin="round" stroke-width="10"/><path d="M123.13,16.94s31.78,18.92,19.76,66" fill="none" stroke="#333" stroke-linecap="round" stroke-linejoin="round" stroke-width="10"/><path d="M111.66,96.22,104.51,72.3l5.67-4.56-5.37-18L98,50.5,90.73,26.26a2.75,2.75,0,0,0-3.43-1.85l-.85.25a2.75,2.75,0,0,0-1.85,3.43,2.78,2.78,0,0,1-1,3L43.86,59.76a2.74,2.74,0,0,1-.82.41L10.28,70A2.75,2.75,0,0,0,8.43,73.4l1.43,4.79L5.67,79.44a5.36,5.36,0,0,0-3.59,6.65L4.4,93.82A5.34,5.34,0,0,0,11,97.4l4.2-1.25,1.37,4.58A2.75,2.75,0,0,0,20,102.58l4.79-1.43.4-.12,10.05,13.88,4.07-1.22,14.41,20.67,16.8-5L55,109l3.18-1L49.14,93.88l3-.9a2.84,2.84,0,0,1,1-.11l50,3.18a2.76,2.76,0,0,1,2.47,2v0A2.75,2.75,0,0,0,109,99.9l.85-.25A2.75,2.75,0,0,0,111.66,96.22Zm-92,4.73L10.5,71.16l2.87-.88,9.13,29.79Zm82.42-6.34L83.91,32.82,86.79,32l18.14,61.8Z" fill="#333" stroke="#fff" stroke-miterlimit="10" stroke-width="2"/></svg>