<svg xmlns="http://www.w3.org/2000/svg" xmlns:xlink="http://www.w3.org/1999/xlink" width="500" height="550" viewBox="0 0 500 550">
  <defs>
    <radialGradient id="Áåçûìÿííûé_ãðàäèåíò_25" data-name="Áåçûìÿííûé ãðàäèåíò 25" cx="574.11" cy="124.97" r="48.84" gradientTransform="translate(-124.03 -59.67) rotate(20.3)" gradientUnits="userSpaceOnUse">
      <stop offset="0" stop-color="#f4dbee"/>
      <stop offset="1" stop-color="#d1bde5"/>
    </radialGradient>
    <linearGradient id="Áåçûìÿííûé_ãðàäèåíò_94" data-name="Áåçûìÿííûé ãðàäèåíò 94" x1="517.96" y1="138.29" x2="575.89" y2="138.29" gradientTransform="translate(-124.03 -59.67) rotate(20.3)" gradientUnits="userSpaceOnUse">
      <stop offset="0" stop-color="#9579a7"/>
      <stop offset="1" stop-color="#fff"/>
    </linearGradient>
    <radialGradient id="Áåçûìÿííûé_ãðàäèåíò_436" data-name="Áåçûìÿííûé ãðàäèåíò 436" cx="595.9" cy="294.74" r="52.06" gradientTransform="translate(-124.03 -59.67) rotate(20.3)" gradientUnits="userSpaceOnUse">
      <stop offset="0" stop-color="#f4f1ff"/>
      <stop offset="1" stop-color="#d1bde5"/>
    </radialGradient>
    <radialGradient id="Áåçûìÿííûé_ãðàäèåíò_25-2" cx="429.61" cy="171.88" r="53.31" xlink:href="#Áåçûìÿííûé_ãðàäèåíò_25"/>
    <radialGradient id="Áåçûìÿííûé_ãðàäèåíò_436-2" cx="466.02" cy="304.15" r="62.77" xlink:href="#Áåçûìÿííûé_ãðàäèåíò_436"/>
    <linearGradient id="Áåçûìÿííûé_ãðàäèåíò_36" data-name="Áåçûìÿííûé ãðàäèåíò 36" x1="386.93" y1="248.54" x2="571.14" y2="248.54" gradientTransform="translate(-124.03 -59.67) rotate(20.3)" gradientUnits="userSpaceOnUse">
      <stop offset="0" stop-color="#fff"/>
      <stop offset="1" stop-color="#9579a7"/>
    </linearGradient>
    <linearGradient id="Áåçûìÿííûé_ãðàäèåíò_519" data-name="Áåçûìÿííûé ãðàäèåíò 519" x1="482.95" y1="117.37" x2="482.95" y2="-68.9" gradientTransform="translate(-124.03 -59.67) rotate(20.3)" gradientUnits="userSpaceOnUse">
      <stop offset="0" stop-color="#d1bde5"/>
      <stop offset="1" stop-color="#fff"/>
    </linearGradient>
    <linearGradient id="Áåçûìÿííûé_ãðàäèåíò_93" data-name="Áåçûìÿííûé ãðàäèåíò 93" x1="501.55" y1="84.8" x2="501.55" y2="-63.97" gradientTransform="translate(-124.03 -59.67) rotate(20.3)" gradientUnits="userSpaceOnUse">
      <stop offset="0" stop-color="#007c7e"/>
      <stop offset="1" stop-color="#0f183b"/>
    </linearGradient>
    <linearGradient id="Áåçûìÿííûé_ãðàäèåíò_36-2" x1="382.84" y1="62.35" x2="572.75" y2="62.35" xlink:href="#Áåçûìÿííûé_ãðàäèåíò_36"/>
    <linearGradient id="Áåçûìÿííûé_ãðàäèåíò_20" data-name="Áåçûìÿííûé ãðàäèåíò 20" x1="428.04" y1="107.68" x2="428.04" y2="8.85" gradientTransform="translate(-124.03 -59.67) rotate(20.3)" gradientUnits="userSpaceOnUse">
      <stop offset="0" stop-color="#d1bde5"/>
      <stop offset="1" stop-color="#f4dbee"/>
    </linearGradient>
    <linearGradient id="Áåçûìÿííûé_ãðàäèåíò_36-3" x1="550.86" y1="360.04" x2="594.2" y2="360.04" xlink:href="#Áåçûìÿííûé_ãðàäèåíò_36"/>
    <linearGradient id="Áåçûìÿííûé_ãðàäèåíò_36-4" x1="425.13" y1="371.8" x2="465.93" y2="371.8" xlink:href="#Áåçûìÿííûé_ãðàäèåíò_36"/>
    <clipPath id="clip-path">
      <path d="M403.94,191c-.18.29-.34.6-.55.88-6.52,6.39-29,23-66.34,14-46-11-51.73-50.73-51.73-50.73l-9-1.57c.24-5.85.22-11.22,0-16.13h0s76.35-72.25,142.58-14.07C419.21,151.35,411,178.57,403.94,191Z" style="fill: none"/>
    </clipPath>
    <radialGradient id="Áåçûìÿííûé_ãðàäèåíò_217" data-name="Áåçûìÿííûé ãðàäèåíò 217" cx="618.43" cy="-171.7" r="15.83" gradientTransform="matrix(1.47, -0.02, 0.01, 0.66, -557.12, 230.1)" gradientUnits="userSpaceOnUse">
      <stop offset="0" stop-color="#003cee"/>
      <stop offset="0.06" stop-color="#0036d6"/>
      <stop offset="0.2" stop-color="#00289e"/>
      <stop offset="0.34" stop-color="#001c6d"/>
      <stop offset="0.48" stop-color="#001246"/>
      <stop offset="0.62" stop-color="#000a27"/>
      <stop offset="0.75" stop-color="#000412"/>
      <stop offset="0.88" stop-color="#000104"/>
      <stop offset="1"/>
    </radialGradient>
    <linearGradient id="Áåçûìÿííûé_ãðàäèåíò_36-5" x1="356.95" y1="192.52" x2="385.09" y2="192.52" xlink:href="#Áåçûìÿííûé_ãðàäèåíò_36"/>
    <linearGradient id="Áåçûìÿííûé_ãðàäèåíò_94-2" x1="618.4" y1="97.79" x2="635.5" y2="97.79" xlink:href="#Áåçûìÿííûé_ãðàäèåíò_94"/>
  </defs>
  <title>bg</title>
  <g style="isolation: isolate">
    <g id="space_background" data-name="space background">
      <g>
        <path d="M95.42,389.7c-10.13,0-20.73-2.84-32-10.25-25.19-16.54-25.71-51-11.74-73.45,14.27-22.93,47.43-40,93.9-12.62C224.25,339.75,250.77,315,251,314.76l6.07,5.91c-1.21,1.26-30.56,30.25-115.86-20-41.16-24.25-69.55-10.84-82.39,9.79C47,329.55,47.12,358.63,68,372.36c26,17,47.86,6,71-5.71,9.33-4.7,19-9.57,29-12.56,35.71-10.69,61.47,7.82,62.55,8.61l-5,6.84c-.23-.17-23.57-16.78-55.11-7.33-9.26,2.77-18.57,7.47-27.57,12C127.72,381.88,112.23,389.7,95.42,389.7Z" style="fill: #cab3da"/>
        <path d="M158.61,460.63s-18.23,21.66-35.35,14.76Z" style="fill: #cab3da;fill-rule: evenodd"/>
        <path d="M425.41,264.73c-6.11,16.54-43.82,36.72-64.88,33.72a23.35,23.35,0,0,1-2.79-.56c-12.65-3.35-21.94-16.41-26.84-25.06a77.51,77.51,0,0,1-4-7.9l-.65-42s.54.11,1.49.35a73,73,0,0,1,16.13,6.17c8.5,4.63,37.64,10.53,52.73,7.16s20.5-8.18,24.14-7.69,6.49,6.65,6.49,6.65S431.86,247.29,425.41,264.73Z" style="fill-rule: evenodd;fill: url(#Áåçûìÿííûé_ãðàäèåíò_25)"/>
        <path d="M427.25,235.58s-6.37-2.36-8.9,1.6-5.91,28.07,7.07,27.54,1.83-29.14,1.83-29.14Z" style="fill: #684d73;fill-rule: evenodd"/>
        <path d="M424,237s-2,12.9,5.35,23.81C429.3,260.83,435.6,245,424,237Z" style="fill: #53345f;fill-rule: evenodd"/>
        <path d="M454.24,236c-4.07,8.55-10.87,14.19-16.57,17.66a46.6,46.6,0,0,1-9.89,4.69,25.22,25.22,0,0,1-4.08-16.22s.68-1.57,1.8-3.88c2.49-5.08,7.12-13.73,11.26-16.7l.29,6s4.83-8.43,17.85-7.88C454.9,219.6,461.24,221.23,454.24,236Z" style="fill: #ff6b22;fill-rule: evenodd"/>
        <path d="M380.06,237.41s-7.5,10.7-8.33,33.1,14.46,23.91,14.46,23.91-9,3.56-15.49,3.94c0,0-36.34-9-4.66-62.62Z" style="fill: #ff6b22"/>
        <path d="M330.9,272.83c-.54,3.29-1.22,6.7-2.07,10.28L316,260.23l7.82-37.56,3.79.21c.06.14.1.27.17.4a73,73,0,0,1,16.13,6.17s-28.19,27.71,13.82,68.41l0,0C345.09,294.54,335.8,281.48,330.9,272.83Z" style="fill-rule: evenodd;mix-blend-mode: multiply;fill: url(#Áåçûìÿííûé_ãðàäèåíò_94)"/>
        <path d="M312.09,474.09s-7.35-13.65-42.44-10.16C269.65,463.93,283.41,481.09,312.09,474.09Z" style="fill: #311745;fill-rule: evenodd"/>
        <path d="M150.39,423.94s22.57,0,34.18,25.42c0,0-9.79,4.05-22-3.15S150.39,423.94,150.39,423.94Z" style="fill: #311745;fill-rule: evenodd"/>
        <path d="M287.18,482.4l-16.32-6s.26-4.23.42-10.93c.46-17,.42-49.76-5.29-70.07v0l59.71-36.51s.27,4,.6,10.34c.91,18.4,7.68,55.45,3.66,70.16C324.59,459.06,287.18,482.4,287.18,482.4Z" style="fill-rule: evenodd;fill: url(#Áåçûìÿííûé_ãðàäèåíò_436)"/>
        <path d="M325.71,358.84s-20.11,27.08-57,36.88l-2.75-.35-14.73-1.87a.45.45,0,0,1,0-.13,2.06,2.06,0,0,0,0-.25.88.88,0,0,0,0-.23,1.48,1.48,0,0,0,0-.29c-.12-6.54-2.14-47.63-32.17-83.78,0,0,2.75-2.92,8.48-11.31.51-.77,1.06-1.6,1.65-2.46,2.65-4,5.83-9,9.55-15.23,8.15-13.6,21.83-35.74,31.26-51v0c2.83-4.57,5.28-8.52,7.1-11.43.68-1.1,1.28-2.07,1.77-2.83,1-1.58,1.5-2.43,1.5-2.43s30,14.51,46.49,9.1c0,0,.27.54.7,1.63.06.13.1.26.17.4,2.19,5.66,7.49,23,3.14,49.55-.54,3.28-1.22,6.7-2.07,10.27-.31,1.26-.62,2.54-1,3.85,0,0,4.85,29.81-.25,61.94C327.08,352.2,326.46,355.52,325.71,358.84Z" style="fill: #cab3da;fill-rule: evenodd"/>
        <path d="M270.61,255.05v0c-.57,1-1.18,2-1.81,3-9.86,16-25.13,31.71-41.23,39.43-9.87,4.74-20,6.47-29.44,3.48-21-6.7-30-24.1-32.18-29.22q-.1-.27-.21-.48a2.18,2.18,0,0,0-.16-.42l-.21-.52s-6.8-4.66-4.14-12.4,9.71-18.78,9.71-18.78l4.12-.18s2.58-5.21,8.21-5.06S201,239,218.4,235.22c15.26-3.32,38.2-12.56,45.91-16.58a14.06,14.06,0,0,0,2.28-1.37,25.14,25.14,0,0,1,8.4-3.91l2.36.74,1.55.49,4.77,1.49S286.61,227.91,270.61,255.05Z" style="fill-rule: evenodd;fill: url(#Áåçûìÿííûé_ãðàäèåíò_25-2)"/>
        <path d="M251.26,393.51s-33.4,29.19-41.42,37.09-31.54,19.63-43.68,21.32a7.57,7.57,0,0,1-.89.1c-11.49,1.19-16.2-6.42-16.2-6.42s.29-2.32.79-6c.67-4.85,1.7-12.05,2.89-19.23,1.56-9.57,3.41-19.07,5-22.91,2.73-6.54,34.91-51.82,51.51-75l9.82-13.64c32.44,24.57,32.38,76.45,32.17,83.78a3,3,0,0,1,0,.3,1.93,1.93,0,0,1,0,.23,1.56,1.56,0,0,1,0,.24Z" style="fill-rule: evenodd;fill: url(#Áåçûìÿííûé_ãðàäèåíò_436-2)"/>
        <path d="M286.33,216.79s15.18,11.47,21.31,13.32,19.25-8.85,19.25-8.85S312.47,223.15,286.33,216.79Z" style="fill: #53345f;fill-rule: evenodd"/>
        <path d="M275,213.37s.26,49.54-39,80.35c0,0,35.67-21.56,50.37-76.93Z" style="fill: #53345f;fill-rule: evenodd"/>
        <path d="M323.81,222.67s6.95,37.26,4.06,64.29c0,0,10.51-29.94,3.64-62.62l-4.62-3.08Z" style="fill: #53345f;fill-rule: evenodd"/>
        <path d="M213.08,317.19s22.47,16.19,32.79,81l5.38-4.72s3.28-63-32.15-84.69Z" style="fill: #53345f;fill-rule: evenodd"/>
        <path d="M327.6,349s-28.69,40.12-61.6,46.42l1,4s33.68-1.75,59.13-33.08Z" style="fill: #53345f;fill-rule: evenodd"/>
        <path d="M165.36,270.36s-6.8-4.66-4.14-12.4,9.71-18.78,9.71-18.78l4.12-.18S188.78,258.35,165.36,270.36Z" style="fill: #684d73;fill-rule: evenodd"/>
        <path d="M163.35,263.43s13.53-12.67,7.58-24.25C170.93,239.18,158.26,258.26,163.35,263.43Z" style="fill: #53345f;fill-rule: evenodd"/>
        <path d="M172.09,247.7s.75-11.23-8.15-16.79l-1.8,4.87s-10.93-12.36-22.89-7.11c0,0-1.6,22.31,26,32.92A23.7,23.7,0,0,0,172.09,247.7Z" style="fill: #ff6b22;fill-rule: evenodd"/>
        <path d="M167.13,382.52s-5.39,15.15,13.45,30.43,36.59,10.81,36.59,10.81-8.83,9-15,12.7-37.15-8.56-47.3-28.09c0,0,1.15-8.34,3.67-12.52S167.13,382.52,167.13,382.52Z" style="fill: #ff6b22"/>
        <path d="M270.18,420.63s12.31,13.68,28,21.19a42.34,42.34,0,0,0,30.08,2.42s-5.57,10.13-12.36,15.6c0,0-19-1.26-28.79-7.43s-16-17.19-16-17.19Z" style="fill: #ff6b22"/>
        <path d="M222.93,234.13s25.94,35.35-10.82,68.09A40.8,40.8,0,0,0,226.52,298c10.61-5,38.4-52.28,8.5-67.72Z" style="fill: #ff6b22"/>
        <path d="M266.27,395.6l-.53-.46c.23-.28,24-28.46,32.35-51,7.21-19.51,7.85-30.17,8.75-44.92.34-5.57.72-11.89,1.53-19.4A335.28,335.28,0,0,0,310,231.16l.71,0a336,336,0,0,1-1.67,48.79c-.81,7.49-1.19,13.81-1.53,19.38-.89,14.81-1.54,25.51-8.79,45.11C290.37,367,266.51,395.32,266.27,395.6Z" style="fill: #53345f"/>
        <path d="M272.61,465.93l-1.33-.49c.46-17,.42-49.76-5.29-70.07l-14.73-1.87s-33.4,29.2-41.42,37.09-31.55,19.63-43.69,21.33c-.3,0-.61.08-.89.09l-15.4-12.39c.67-4.86,1.69-12.06,2.89-19.24l1.42-.37s15.86,19.11,34.59,18,50.39-44.7,50-52.77c-1.53-30.13-19.49-52.58-29.47-62.82l9.81-13.63s2.75-2.92,8.48-11.31c-9.87,4.74-20,6.47-29.44,3.48-21-6.69-30-24.1-32.18-29.21,2.52,5.4,13.74,25.16,44.93,27.32a33.75,33.75,0,0,0,18.34-4.05c25-13.12,39.38-53.57,40.63-62.24a20.2,20.2,0,0,0,.18-3.95v0c-.48-7.53-5.72-10.21-5.72-10.21a15.54,15.54,0,0,0,2.28-1.36,24.83,24.83,0,0,1,8.4-3.91l2.35.74c-.06.83-.11,2-.21,3.31A197.86,197.86,0,0,1,270.61,255l0,0c-2.66,9.45-6.38,19.16-11.54,27.55-17.16,27.94-22.72,32.56-22.72,32.56s12.78,46.55,25.37,58.11,48-6.41,56.92-15.37c4.27-4.24,7.13-7.17,9-9-.53,3.31-1.15,6.63-1.9,9.95,0,0,.27,4,.6,10.34-8.87,9.47-39.11,42.29-44.89,55.6C274.64,440.44,272.61,465.93,272.61,465.93Z" style="fill-rule: evenodd;mix-blend-mode: multiply;fill: url(#Áåçûìÿííûé_ãðàäèåíò_36)"/>
        <path d="M275,213.36s6.41,27,31.16,43.23,32.58-29.71,32.58-29.71l-7.22-2.54-3.92-1.46Z" style="fill: #53345f;fill-rule: evenodd;opacity: 0.5;mix-blend-mode: multiply"/>
        <path d="M403.94,191c-.18.29-.34.6-.55.88-2.58,4-7.31,8.32-13.54,12.39,0,0-.36.26-1.07.67a108.25,108.25,0,0,1-45.16,15.48c-27.85,2.86-68.85-1.28-94.66-20.93s-34.21-75.1-26.42-92.43a160.66,160.66,0,0,1,9.09-17.48c11-18.23,30-40.39,61-46.58,23.44-4.68,54.66-.76,78.26,7a112.24,112.24,0,0,1,19.38,8.28,50.12,50.12,0,0,1,9.22,6.47l1,1a19.06,19.06,0,0,1,1.83,2.06C431.34,105.32,416.06,169.77,403.94,191Z" style="fill-rule: evenodd;fill: url(#Áåçûìÿííûé_ãðàäèåíò_519)"/>
        <path d="M400.14,186.84c-.17.28-.32.56-.51.83-6.12,6-27.18,21.57-62.23,13.15-43.1-10.35-48.51-47.58-48.51-47.58l-8.41-1.48c.23-5.48.21-10.51,0-15.12-1.17-25.84-8.25-38.35-8-42.08.33-4.4,10.8-29.07,42.22-39.06,20.83-6.62,40.48-4.44,54.42-.88a104.15,104.15,0,0,1,18.17,7.77A46.22,46.22,0,0,1,396,68.45l.94.91a20.28,20.28,0,0,1,1.72,1.94c11.3,14.61,15.43,33.54,15.6,52.13C414.46,149.66,406.79,175.19,400.14,186.84Z" style="fill: url(#Áåçûìÿííûé_ãðàäèåíò_93)"/>
        <path d="M388.78,204.94a108.25,108.25,0,0,1-45.16,15.48c-27.85,2.86-68.85-1.28-94.66-20.93s-34.21-75.1-26.42-92.43a160.66,160.66,0,0,1,9.09-17.48c3.77-3.65,8.42-5.73,14.07-4.56,20.75,4.3,24.13,72.15,24.13,72.15l10.15-.54s5.31,39,46.13,53.2C361.82,222.24,383.78,207.82,388.78,204.94Z" style="fill-rule: evenodd;mix-blend-mode: multiply;fill: url(#Áåçûìÿííûé_ãðàäèåíò_36-2)"/>
        <path d="M237.72,187.24c9.8,9.07,28,5.9,31-28.67S253,89.74,253,89.74c28.64,3.81,23.33,63.86,23.33,63.86-.6,2.54-1.21,4.9-1.86,7.11l-.07.24C261,208,239.57,189,237.72,187.24Z" style="fill-rule: evenodd;fill: url(#Áåçûìÿííûé_ãðàäèåíò_20)"/>
        <path d="M221,112c3.26-11.75,10.82-19.58,17.57-19.22s24,31,19.37,65.16-26.18,22.61-30.23,9.51l-2.39-7.14s16.08,22,25.21,1.32c10.42-23.62-8.52-54.57-18.81-50.73s-11.51,23.21-11.51,23.21S218.82,119.8,221,112Z" style="fill: #53345f;fill-rule: evenodd"/>
        <path d="M266.89,480.23l2.61-4.36.14-11.93s24.63,11.94,42.45,10.14a47.72,47.72,0,0,1-23,10.79S303,491.73,302,506.7Z" style="fill: #684d73;fill-rule: evenodd"/>
        <path d="M184.48,449.37l-24.11,6.53-1.76,4.74s-14.48,15.51-35.36,14.76c0,0,3.65-17.52,23.81-25.95l3.32-25.51a43,43,0,0,0,11.45,18.58C170.34,450.59,183.34,449.48,184.48,449.37Z" style="fill: #684d73;fill-rule: evenodd"/>
        <polygon points="266.89 480.23 264.42 482.3 300.55 509.02 301.97 506.7 266.89 480.23" style="fill: #cab3da;fill-rule: evenodd"/>
        <path d="M312.09,474.08a47.72,47.72,0,0,1-23,10.79s-15.32-4.67-22.15-4.64l2.61-4.36.14-11.93S294.27,475.88,312.09,474.08Z" style="fill-rule: evenodd;mix-blend-mode: multiply;fill: url(#Áåçûìÿííûé_ãðàäèåíò_36-3)"/>
        <path d="M184.48,449.37l-24.11,6.53a31.44,31.44,0,0,1-13.31-6.45l3.32-25.51a43,43,0,0,0,11.45,18.58C170.34,450.59,183.34,449.48,184.48,449.37Z" style="fill-rule: evenodd;mix-blend-mode: multiply;fill: url(#Áåçûìÿííûé_ãðàäèåíò_36-4)"/>
        <path d="M287.25,94.56s.36-10.2,1.48-13.23a42.81,42.81,0,0,1,14.9-7.69l5.63,18.15S292,93.18,287.25,94.56Z" style="fill: #fff"/>
        <path d="M296.09,160.22s2,8.74,5.91,14l5.09-2.75s-3.7-7.9-5.3-12.66Z" style="fill: #fff"/>
        <g style="mix-blend-mode: screen">
          <g style="clip-path: url(#clip-path)">
            <rect x="276.33" y="65.21" width="142.88" height="149.66"/>
            <ellipse cx="358.03" cy="101.48" rx="78.16" ry="55.11" transform="translate(-2.32 8.57) rotate(-1.37)"/>
            <ellipse cx="358.03" cy="101.48" rx="77.6" ry="54.71" transform="translate(-2.32 8.57) rotate(-1.37)" style="fill: #000001"/>
            <ellipse cx="358.03" cy="101.48" rx="77.04" ry="54.31" transform="translate(-2.32 8.57) rotate(-1.37)" style="fill: #010101"/>
            <ellipse cx="358.03" cy="101.48" rx="76.48" ry="53.92" transform="translate(-2.32 8.57) rotate(-1.37)" style="fill: #010102"/>
            <ellipse cx="358.03" cy="101.48" rx="75.91" ry="53.52" transform="translate(-2.32 8.57) rotate(-1.37)" style="fill: #010103"/>
            <ellipse cx="358.03" cy="101.48" rx="75.35" ry="53.12" transform="translate(-2.32 8.57) rotate(-1.37)" style="fill: #010204"/>
            <ellipse cx="358.03" cy="101.48" rx="74.79" ry="52.73" transform="translate(-2.32 8.57) rotate(-1.37)" style="fill: #020205"/>
            <ellipse cx="358.03" cy="101.48" rx="74.23" ry="52.33" transform="translate(-2.32 8.57) rotate(-1.37)" style="fill: #020206"/>
            <ellipse cx="358.03" cy="101.48" rx="73.67" ry="51.93" transform="translate(-2.32 8.57) rotate(-1.37)" style="fill: #020306"/>
            <ellipse cx="358.03" cy="101.48" rx="73.1" ry="51.54" transform="translate(-2.32 8.57) rotate(-1.37)" style="fill: #030307"/>
            <ellipse cx="358.03" cy="101.48" rx="72.54" ry="51.14" transform="translate(-2.32 8.57) rotate(-1.37)" style="fill: #030308"/>
            <ellipse cx="358.03" cy="101.48" rx="71.98" ry="50.74" transform="translate(-2.32 8.57) rotate(-1.37)" style="fill: #030409"/>
            <ellipse cx="358.03" cy="101.48" rx="71.42" ry="50.35" transform="translate(-2.32 8.57) rotate(-1.37)" style="fill: #04040a"/>
            <ellipse cx="358.03" cy="101.48" rx="70.85" ry="49.95" transform="translate(-2.32 8.57) rotate(-1.37)" style="fill: #04040b"/>
            <path d="M428.3,99.8C429,127.16,398,150.09,359.21,151s-70.8-20.51-71.46-47.87S318,52.86,356.84,51.94,427.64,72.44,428.3,99.8Z" style="fill: #05050c"/>
            <ellipse cx="358.03" cy="101.48" rx="69.73" ry="49.16" transform="translate(-2.32 8.57) rotate(-1.37)" style="fill: #05050d"/>
            <ellipse cx="358.03" cy="101.48" rx="69.17" ry="48.76" transform="translate(-2.32 8.57) rotate(-1.37)" style="fill: #05050e"/>
            <ellipse cx="358.03" cy="101.48" rx="68.6" ry="48.37" transform="translate(-2.32 8.57) rotate(-1.37)" style="fill: #06060e"/>
            <ellipse cx="358.03" cy="101.48" rx="68.04" ry="47.97" transform="translate(-2.32 8.57) rotate(-1.37)" style="fill: #06060f"/>
            <ellipse cx="358.03" cy="101.48" rx="67.48" ry="47.57" transform="translate(-2.32 8.57) rotate(-1.37)" style="fill: #060710"/>
            <ellipse cx="358.03" cy="101.48" rx="66.92" ry="47.18" transform="translate(-2.32 8.57) rotate(-1.37)" style="fill: #070711"/>
            <path d="M424.36,99.89c.62,25.83-28.58,47.48-65.22,48.35s-66.83-19.35-67.45-45.18,28.58-47.48,65.22-48.35S423.75,74.07,424.36,99.89Z" style="fill: #070712"/>
            <ellipse cx="358.03" cy="101.48" rx="65.79" ry="46.38" transform="translate(-2.32 8.57) rotate(-1.37)" style="fill: #070813"/>
            <ellipse cx="358.03" cy="101.48" rx="65.23" ry="45.99" transform="translate(-2.32 8.57) rotate(-1.37)" style="fill: #080814"/>
            <ellipse cx="358.03" cy="101.48" rx="64.67" ry="45.59" transform="translate(-2.32 8.57) rotate(-1.37)" style="fill: #080815"/>
            <ellipse cx="358.03" cy="101.48" rx="64.11" ry="45.19" transform="translate(-2.32 8.57) rotate(-1.37)" style="fill: #090916"/>
            <ellipse cx="358.03" cy="101.48" rx="63.54" ry="44.8" transform="translate(-2.32 8.57) rotate(-1.37)" style="fill: #090917"/>
            <ellipse cx="358.03" cy="101.48" rx="62.98" ry="44.4" transform="translate(-2.32 8.57) rotate(-1.37)" style="fill: #090a18"/>
            <ellipse cx="358.03" cy="101.48" rx="62.42" ry="44" transform="translate(-2.32 8.57) rotate(-1.37)" style="fill: #0a0a19"/>
            <ellipse cx="358.03" cy="101.48" rx="61.86" ry="43.61" transform="translate(-2.32 8.57) rotate(-1.37)" style="fill: #0a0a1a"/>
            <ellipse cx="358.03" cy="101.48" rx="61.29" ry="43.21" transform="translate(-2.32 8.57) rotate(-1.37)" style="fill: #0a0b1b"/>
            <ellipse cx="358.03" cy="101.48" rx="60.73" ry="42.82" transform="translate(-2.32 8.57) rotate(-1.37)" style="fill: #0b0b1c"/>
            <path d="M418.18,100c.56,23.42-25.92,43.05-59.14,43.84s-60.61-17.55-61.17-41,25.92-43,59.14-43.84S417.62,76.62,418.18,100Z" style="fill: #0b0c1d"/>
            <ellipse cx="358.03" cy="101.48" rx="59.61" ry="42.02" transform="translate(-2.32 8.57) rotate(-1.37)" style="fill: #0b0c1e"/>
            <path d="M417.05,100.07c.55,23-25.43,42.24-58,43s-59.47-17.22-60-40.21,25.43-42.24,58-43S416.5,77.09,417.05,100.07Z" style="fill: #0c0c1f"/>
            <path d="M416.49,100.08c.54,22.77-25.19,41.84-57.48,42.61s-58.91-17-59.45-39.82S324.75,61,357,60.26,416,77.32,416.49,100.08Z" style="fill: #0c0d1f"/>
            <ellipse cx="358.03" cy="101.48" rx="57.92" ry="40.83" transform="translate(-2.32 8.57) rotate(-1.37)" style="fill: #0d0d20"/>
            <ellipse cx="358.03" cy="101.48" rx="57.36" ry="40.44" transform="translate(-2.32 8.57) rotate(-1.37)" style="fill: #0d0d21"/>
            <ellipse cx="358.03" cy="101.48" rx="56.8" ry="40.04" transform="translate(-2.32 8.57) rotate(-1.37)" style="fill: #0d0e22"/>
            <ellipse cx="358.03" cy="101.48" rx="56.23" ry="39.64" transform="translate(-2.32 8.57) rotate(-1.37)" style="fill: #0e0e23"/>
            <ellipse cx="358.03" cy="101.48" rx="55.67" ry="39.25" transform="translate(-2.32 8.57) rotate(-1.37)" style="fill: #0e0f24"/>
            <ellipse cx="358.03" cy="101.48" rx="55.11" ry="38.85" transform="translate(-2.32 8.57) rotate(-1.37)" style="fill: #0f0f25"/>
            <path d="M412.56,100.18c.5,21.23-23.5,39-53.62,39.74S304,124,303.49,102.78,327,63.75,357.11,63,412.05,78.94,412.56,100.18Z" style="fill: #0f0f26"/>
            <ellipse cx="358.03" cy="101.48" rx="53.98" ry="38.06" transform="translate(-2.32 8.57) rotate(-1.37)" style="fill: #0f1027"/>
            <ellipse cx="358.03" cy="101.48" rx="53.42" ry="37.66" transform="translate(-2.32 8.57) rotate(-1.37)" style="fill: #101028"/>
            <path d="M410.87,100.22c.49,20.57-22.77,37.82-52,38.51s-53.24-15.42-53.73-36,22.77-37.82,52-38.52S410.38,79.64,410.87,100.22Z" style="fill: #101129"/>
            <path d="M410.31,100.23c.48,20.36-22.53,37.42-51.41,38.11s-52.67-15.26-53.16-35.62,22.53-37.41,51.41-38.1S409.82,79.87,410.31,100.23Z" style="fill: #10112a"/>
            <ellipse cx="358.03" cy="101.48" rx="51.73" ry="36.47" transform="translate(-2.32 8.57) rotate(-1.37)" style="fill: #11112b"/>
            <ellipse cx="358.03" cy="101.48" rx="51.17" ry="36.08" transform="translate(-2.32 8.57) rotate(-1.37)" style="fill: #11122c"/>
            <ellipse cx="358.03" cy="101.48" rx="50.61" ry="35.68" transform="translate(-2.32 8.57) rotate(-1.37)" style="fill: #12122d"/>
            <ellipse cx="358.03" cy="101.48" rx="50.05" ry="35.28" transform="translate(-2.32 8.57) rotate(-1.37)" style="fill: #12132e"/>
            <ellipse cx="358.03" cy="101.48" rx="49.49" ry="34.89" transform="translate(-2.32 8.57) rotate(-1.37)" style="fill: #12132f"/>
            <ellipse cx="358.03" cy="101.48" rx="48.92" ry="34.49" transform="translate(-2.32 8.57) rotate(-1.37)" style="fill: #131330"/>
            <ellipse cx="358.03" cy="101.48" rx="48.36" ry="34.09" transform="translate(-2.32 8.57) rotate(-1.37)" style="fill: #131431"/>
            <ellipse cx="358.03" cy="101.48" rx="47.8" ry="33.7" transform="translate(-2.32 8.57) rotate(-1.37)" style="fill: #141432"/>
            <ellipse cx="358.03" cy="101.48" rx="47.24" ry="33.3" transform="translate(-2.32 8.57) rotate(-1.37)" style="fill: #141533"/>
            <ellipse cx="358.03" cy="101.48" rx="46.67" ry="32.9" transform="translate(-2.32 8.57) rotate(-1.37)" style="fill: #141534"/>
            <path d="M404.12,100.38c.43,18-19.86,33-45.32,33.6s-46.44-13.46-46.87-31.4,19.86-33,45.32-33.6S403.69,82.43,404.12,100.38Z" style="fill: #151635"/>
            <path d="M403.56,100.39c.42,17.73-19.62,32.59-44.77,33.19s-45.88-13.29-46.3-31S332.11,70,357.26,69.37,403.14,82.66,403.56,100.39Z" style="fill: #151636"/>
            <path d="M403,100.4c.42,17.51-19.38,32.19-44.22,32.78s-45.31-13.12-45.73-30.63,19.38-32.19,44.22-32.78S402.58,82.89,403,100.4Z" style="fill: #161637"/>
            <ellipse cx="358.03" cy="101.48" rx="44.42" ry="31.32" transform="translate(-2.32 8.57) rotate(-1.37)" style="fill: #161738"/>
            <path d="M401.87,100.43c.41,17.07-18.89,31.38-43.11,32s-44.18-12.79-44.58-29.87,18.89-31.38,43.11-32S401.47,83.36,401.87,100.43Z" style="fill: #161739"/>
            <ellipse cx="358.03" cy="101.48" rx="43.3" ry="30.53" transform="translate(-2.32 8.57) rotate(-1.37)" style="fill: #17183a"/>
            <path d="M400.75,100.46c.4,16.63-18.41,30.57-42,31.14s-43-12.47-43.44-29.1,18.41-30.58,42-31.14S400.35,83.82,400.75,100.46Z" style="fill: #17183b"/>
            <ellipse cx="358.03" cy="101.48" rx="42.17" ry="29.73" transform="translate(-2.32 8.57) rotate(-1.37)" style="fill: #18183d"/>
            <ellipse cx="358.03" cy="101.48" rx="41.61" ry="29.34" transform="translate(-2.32 8.57) rotate(-1.37)" style="fill: #18193e"/>
            <ellipse cx="358.03" cy="101.48" rx="41.05" ry="28.94" transform="translate(-2.32 8.57) rotate(-1.37)" style="fill: #18193f"/>
            <ellipse cx="358.03" cy="101.48" rx="40.49" ry="28.54" transform="translate(-2.32 8.57) rotate(-1.37)" style="fill: #191a40"/>
            <ellipse cx="358.03" cy="101.48" rx="39.93" ry="28.15" transform="translate(-2.32 8.57) rotate(-1.37)" style="fill: #191a41"/>
            <path d="M397.38,100.54c.36,15.32-17,28.16-38.69,28.68s-39.65-11.48-40-26.8,17-28.17,38.69-28.69S397,85.22,397.38,100.54Z" style="fill: #1a1a42"/>
            <ellipse cx="358.03" cy="101.48" rx="38.8" ry="27.35" transform="translate(-2.32 8.57) rotate(-1.37)" style="fill: #1a1b43"/>
            <path d="M396.25,100.56c.36,14.89-16.47,27.36-37.58,27.87s-38.52-11.16-38.87-26S336.27,75,357.38,74.53,395.9,85.68,396.25,100.56Z" style="fill: #1a1b44"/>
            <ellipse cx="358.03" cy="101.48" rx="37.68" ry="26.56" transform="translate(-2.32 8.57) rotate(-1.37)" style="fill: #1b1c45"/>
            <ellipse cx="358.03" cy="101.48" rx="37.11" ry="26.17" transform="translate(-2.32 8.57) rotate(-1.37)" style="fill: #1b1c46"/>
            <ellipse cx="358.03" cy="101.48" rx="36.55" ry="25.77" transform="translate(-2.32 8.56) rotate(-1.37)" style="fill: #1c1d47"/>
            <path d="M394,100.62c.34,14-15.5,25.75-35.37,26.22s-36.25-10.5-36.58-24.51,15.5-25.74,35.37-26.22S393.67,86.61,394,100.62Z" style="fill: #1c1d48"/>
            <path d="M393.44,100.63c.33,13.79-15.26,25.35-34.82,25.82s-35.68-10.34-36-24.13S337.87,77,357.43,76.51,393.11,86.84,393.44,100.63Z" style="fill: #1c1d49"/>
            <path d="M392.88,100.65c.32,13.57-15,24.94-34.27,25.4s-35.12-10.17-35.44-23.74,15-25,34.27-25.41S392.56,87.07,392.88,100.65Z" style="fill: #1d1e4a"/>
            <path d="M392.32,100.66c.32,13.35-14.78,24.54-33.72,25s-34.55-10-34.87-23.36,14.78-24.54,33.72-25S392,87.31,392.32,100.66Z" style="fill: #1d1e4b"/>
            <ellipse cx="358.03" cy="101.48" rx="33.74" ry="23.79" transform="translate(-2.32 8.57) rotate(-1.37)" style="fill: #1e1f4c"/>
            <path d="M391.19,100.69c.31,12.91-14.29,23.73-32.61,24.17s-33.41-9.68-33.72-22.59,14.29-23.74,32.61-24.18S390.89,87.77,391.19,100.69Z" style="fill: #1e1f4d"/>
            <ellipse cx="358.03" cy="101.48" rx="32.62" ry="22.99" transform="translate(-2.32 8.57) rotate(-1.37)" style="fill: #1e1f4e"/>
            <ellipse cx="358.03" cy="101.48" rx="32.05" ry="22.6" transform="translate(-2.32 8.57) rotate(-1.37)" style="fill: #1f204f"/>
            <ellipse cx="358.03" cy="101.48" rx="31.49" ry="22.2" transform="translate(-2.32 8.57) rotate(-1.37)" style="fill: #1f2050"/>
            <path d="M388.94,100.74c.29,12-13.32,22.13-30.39,22.53s-31.16-9-31.44-21.06,13.32-22.12,30.4-22.53S388.66,88.7,388.94,100.74Z" style="fill: #202151"/>
            <path d="M388.38,100.75c.28,11.82-13.08,21.73-29.84,22.13S328,114,327.67,102.2s13.08-21.72,29.84-22.13S388.1,88.93,388.38,100.75Z" style="fill: #202152"/>
            <path d="M387.82,100.77c.28,11.6-12.84,21.32-29.29,21.71s-30-8.69-30.3-20.29,12.84-21.33,29.29-21.72S387.54,89.16,387.82,100.77Z" style="fill: #202253"/>
            <path d="M387.26,100.78c.27,11.38-12.6,20.92-28.74,21.31s-29.46-8.53-29.73-19.92,12.6-20.92,28.74-21.3S387,89.4,387.26,100.78Z" style="fill: #212254"/>
            <path d="M386.7,100.79c.26,11.17-12.36,20.52-28.19,20.9s-28.89-8.37-29.16-19.53,12.36-20.52,28.19-20.9S386.43,89.63,386.7,100.79Z" style="fill: #212255"/>
            <path d="M386.13,100.81c.26,10.94-12.11,20.11-27.63,20.48s-28.32-8.2-28.58-19.14S342,82,357.55,81.66,385.87,89.86,386.13,100.81Z" style="fill: #222356"/>
            <path d="M385.57,100.82c.26,10.72-11.87,19.71-27.08,20.08s-27.76-8-28-18.77,11.87-19.71,27.08-20.07S385.32,90.09,385.57,100.82Z" style="fill: #222358"/>
            <path d="M385,100.83c.25,10.51-11.63,19.31-26.53,19.67s-27.19-7.87-27.44-18.38,11.63-19.31,26.53-19.67S384.76,90.33,385,100.83Z" style="fill: #222459"/>
            <ellipse cx="358.03" cy="101.48" rx="26.43" ry="18.63" transform="translate(-2.32 8.57) rotate(-1.37)" style="fill: #23245a"/>
            <path d="M383.89,100.86c.24,10.07-11.15,18.51-25.43,18.85s-26-7.55-26.29-17.62,11.14-18.5,25.42-18.84S383.64,90.79,383.89,100.86Z" style="fill: #23255b"/>
            <path d="M383.32,100.87c.24,9.85-10.9,18.11-24.87,18.44s-25.49-7.38-25.72-17.23S343.63,84,357.6,83.64,383.09,91,383.32,100.87Z" style="fill: #24255c"/>
            <path d="M382.76,100.89c.23,9.63-10.66,17.7-24.32,18s-24.92-7.22-25.15-16.85S344,84.36,357.61,84,382.53,91.26,382.76,100.89Z" style="fill: #24255d"/>
            <path d="M382.2,100.9c.22,9.41-10.42,17.3-23.77,17.62s-24.35-7-24.58-16.47,10.42-17.3,23.77-17.62S382,91.49,382.2,100.9Z" style="fill: #24265e"/>
            <ellipse cx="358.03" cy="101.48" rx="23.62" ry="16.65" transform="translate(-2.32 8.57) rotate(-1.37)" style="fill: #25265f"/>
            <path d="M381.07,100.93c.22,9-9.93,16.49-22.66,16.8S335.19,111,335,102s9.93-16.5,22.66-16.8S380.86,92,381.07,100.93Z" style="fill: #252760"/>
            <path d="M380.51,100.94c.21,8.76-9.69,16.09-22.11,16.39s-22.65-6.56-22.86-15.32,9.69-16.09,22.11-16.39S380.3,92.18,380.51,100.94Z" style="fill: #262761"/>
            <path d="M380,101c.2,8.54-9.45,15.69-21.56,16S336.3,110.54,336.1,102s9.45-15.69,21.56-16S379.75,92.42,380,101Z" style="fill: #262862"/>
            <path d="M379.39,101c.2,8.31-9.21,15.29-21,15.57S336.86,110.3,336.66,102s9.21-15.29,21-15.57S379.19,92.65,379.39,101Z" style="fill: #272863"/>
            <path d="M378.83,101c.19,8.1-9,14.89-20.46,15.16s-20.95-6.07-21.15-14.17,9-14.88,20.46-15.16S378.63,92.88,378.83,101Z" style="fill: #272864"/>
            <path d="M378.26,101c.19,7.88-8.72,14.49-19.89,14.75S338,109.84,337.79,102s8.72-14.48,19.89-14.75S378.08,93.11,378.26,101Z" style="fill: #272965"/>
            <path d="M377.7,101c.18,7.66-8.48,14.08-19.34,14.34s-19.83-5.74-20-13.4,8.48-14.09,19.34-14.34S377.52,93.35,377.7,101Z" style="fill: #282966"/>
            <path d="M377.14,101c.18,7.44-8.24,13.68-18.79,13.93s-19.26-5.58-19.44-13S347.15,88.25,357.7,88,377,93.58,377.14,101Z" style="fill: #282a67"/>
            <path d="M376.58,101c.17,7.23-8,13.28-18.24,13.53s-18.69-5.42-18.87-12.64,8-13.28,18.24-13.52S376.4,93.81,376.58,101Z" style="fill: #292a68"/>
            <path d="M376,101.05c.17,7-7.75,12.87-17.68,13.11S340.2,108.91,340,101.91,347.79,89,357.72,88.79,375.85,94,376,101.05Z" style="fill: #292b6a"/>
            <path d="M375.45,101.06c.16,6.79-7.51,12.47-17.13,12.7s-17.56-5.08-17.72-11.87,7.51-12.47,17.13-12.7S375.29,94.28,375.45,101.06Z" style="fill: #292b6b"/>
            <path d="M374.89,101.07c.16,6.57-7.27,12.07-16.58,12.3s-17-4.92-17.15-11.49,7.27-12.07,16.58-12.29S374.73,94.51,374.89,101.07Z" style="fill: #2a2b6c"/>
            <path d="M374.33,101.09c.15,6.35-7,11.67-16,11.88s-16.43-4.76-16.58-11.1,7-11.67,16-11.89S374.18,94.74,374.33,101.09Z" style="fill: #2a2c6d"/>
            <path d="M373.77,101.1c.14,6.13-6.79,11.27-15.48,11.47s-15.86-4.59-16-10.72,6.79-11.26,15.48-11.47S373.62,95,373.77,101.1Z" style="fill: #2b2c6e"/>
            <path d="M373.2,101.11c.14,5.91-6.54,10.87-14.92,11.07s-15.29-4.43-15.43-10.34S349.39,91,357.77,90.78,373.06,95.2,373.2,101.11Z" style="fill: #2b2d6f"/>
            <path d="M372.64,101.13c.14,5.69-6.3,10.46-14.37,10.65s-14.73-4.26-14.86-10,6.3-10.47,14.37-10.66S372.51,95.44,372.64,101.13Z" style="fill: #2b2d70"/>
            <path d="M372.08,101.14c.13,5.47-6.06,10.06-13.82,10.24s-14.16-4.1-14.29-9.57S350,91.75,357.79,91.57,372,95.67,372.08,101.14Z" style="fill: #2c2e71"/>
            <path d="M371.52,101.15c.12,5.26-5.82,9.66-13.27,9.84s-13.59-3.94-13.72-9.19,5.82-9.66,13.27-9.84S371.39,95.9,371.52,101.15Z" style="fill: #2c2e72"/>
            <path d="M371,101.17c.12,5-5.58,9.25-12.72,9.42s-13-3.77-13.14-8.8,5.57-9.26,12.71-9.43S370.83,96.13,371,101.17Z" style="fill: #2d2e73"/>
            <path d="M370.39,101.18c.12,4.82-5.33,8.85-12.16,9s-12.46-3.61-12.57-8.43,5.33-8.85,12.16-9S370.28,96.37,370.39,101.18Z" style="fill: #2d2f74"/>
            <path d="M369.83,101.2c.11,4.59-5.09,8.44-11.61,8.6s-11.89-3.44-12-8,5.09-8.45,11.61-8.61S369.72,96.6,369.83,101.2Z" style="fill: #2e2f75"/>
            <path d="M369.27,101.21c.1,4.38-4.85,8.05-11.06,8.19s-11.32-3.28-11.43-7.66,4.85-8,11.06-8.19S369.16,96.83,369.27,101.21Z" style="fill: #2e3076"/>
            <path d="M368.71,101.22c.1,4.16-4.61,7.65-10.51,7.79s-10.76-3.12-10.86-7.28S352,94.09,357.85,94,368.61,97.06,368.71,101.22Z" style="fill: #2e3077"/>
            <path d="M368.14,101.24c.1,3.94-4.36,7.24-9.94,7.37s-10.2-3-10.29-6.89,4.36-7.24,9.94-7.38S368.05,97.3,368.14,101.24Z" style="fill: #2f3179"/>
            <path d="M367.58,101.25c.09,3.72-4.12,6.84-9.39,7s-9.63-2.78-9.72-6.51,4.12-6.83,9.39-7S367.49,97.53,367.58,101.25Z" style="fill: #2f317a"/>
            <path d="M367,101.26c.08,3.5-3.88,6.44-8.84,6.56s-9.07-2.63-9.15-6.13,3.88-6.44,8.84-6.55S366.94,97.76,367,101.26Z" style="fill: #30317b"/>
            <path d="M366.46,101.28c.08,3.28-3.64,6-8.29,6.14s-8.5-2.46-8.58-5.74,3.64-6,8.29-6.15S366.38,98,366.46,101.28Z" style="fill: #30327c"/>
            <path d="M365.9,101.29c.07,3.06-3.4,5.63-7.74,5.74s-7.93-2.3-8-5.37,3.4-5.63,7.74-5.73S365.82,98.22,365.9,101.29Z" style="fill: #31327d"/>
            <path d="M365.33,101.3c.07,2.85-3.15,5.23-7.18,5.33s-7.37-2.13-7.43-5,3.15-5.23,7.18-5.33S365.27,98.46,365.33,101.3Z" style="fill: #31337e"/>
            <path d="M364.77,101.32c.06,2.62-2.91,4.82-6.63,4.91s-6.8-2-6.86-4.59,2.91-4.83,6.63-4.92S364.71,98.69,364.77,101.32Z" style="fill: #31337f"/>
            <path d="M364.21,101.33c.06,2.41-2.67,4.42-6.08,4.51s-6.23-1.81-6.29-4.22,2.67-4.42,6.08-4.5S364.15,98.92,364.21,101.33Z" style="fill: #323480"/>
            <path d="M363.65,101.34c.05,2.19-2.43,4-5.53,4.1s-5.66-1.64-5.72-3.83,2.43-4,5.53-4.1S363.59,99.15,363.65,101.34Z" style="fill: #323481"/>
            <path d="M363.08,101.36c.05,2-2.18,3.62-5,3.68s-5.1-1.47-5.14-3.44,2.18-3.62,5-3.69S363,99.39,363.08,101.36Z" style="fill: #333482"/>
            <path d="M362.52,101.37c0,1.75-1.94,3.22-4.42,3.28s-4.53-1.31-4.57-3.07,1.94-3.21,4.42-3.27S362.48,99.62,362.52,101.37Z" style="fill: #333583"/>
            <path d="M362,101.38c0,1.54-1.7,2.82-3.87,2.87s-4-1.15-4-2.68,1.7-2.82,3.87-2.87S361.92,99.85,362,101.38Z" style="fill: #333584"/>
            <path d="M361.4,101.4c0,1.31-1.46,2.41-3.32,2.45s-3.4-1-3.43-2.29,1.46-2.42,3.32-2.46S361.37,100.08,361.4,101.4Z" style="fill: #343686"/>
            <path d="M360.84,101.41c0,1.09-1.22,2-2.77,2s-2.83-.82-2.86-1.92,1.22-2,2.77-2S360.81,100.32,360.84,101.41Z" style="fill: #343687"/>
            <path d="M360.27,101.42c0,.88-1,1.61-2.21,1.64s-2.26-.65-2.28-1.53,1-1.61,2.21-1.64S360.25,100.55,360.27,101.42Z" style="fill: #353788"/>
            <path d="M359.71,101.44c0,.65-.72,1.2-1.66,1.23s-1.7-.5-1.71-1.15.73-1.21,1.66-1.23S359.7,100.78,359.71,101.44Z" style="fill: #353789"/>
            <path d="M359.15,101.45c0,.44-.48.8-1.11.82s-1.13-.33-1.14-.77.49-.8,1.11-.82S359.14,101,359.15,101.45Z" style="fill: #36388a"/>
            <path d="M358.59,101.46c0,.22-.24.41-.56.41s-.56-.16-.57-.38.25-.4.56-.41S358.58,101.24,358.59,101.46Z" style="fill: #36388b"/>
          </g>
        </g>
        <path d="M373.94,102.37c.09,5.78-10.26,10.61-23.12,10.81s-23.34-4.32-23.43-10.09,10.26-10.61,23.11-10.81S373.85,96.6,373.94,102.37Z" style="mix-blend-mode: screen;fill: url(#Áåçûìÿííûé_ãðàäèåíò_217)"/>
        <path d="M143.89,244.94s8.43,9.31,17.19,9.76,11-8.56,11-8.56,1,7.38-6.81,15.45C165.27,261.59,149.62,255.91,143.89,244.94Z" style="fill-rule: evenodd;mix-blend-mode: multiply;fill: url(#Áåçûìÿííûé_ãðàäèåíò_36-5)"/>
        <path d="M437.67,253.63a46.6,46.6,0,0,1-9.89,4.69,25.22,25.22,0,0,1-4.08-16.22s.68-1.57,1.8-3.88C425.5,238.22,425.12,247.64,437.67,253.63Z" style="fill-rule: evenodd;mix-blend-mode: multiply;fill: url(#Áåçûìÿííûé_ãðàäèåíò_94-2)"/>
        <path d="M298.77,269.17a13.83,13.83,0,1,1-8.17-17.77A13.83,13.83,0,0,1,298.77,269.17Z" style="fill: #684d73;fill-rule: evenodd"/>
        <path d="M294,267.39a8.69,8.69,0,1,1-5.13-11.17A8.69,8.69,0,0,1,294,267.39Z" style="fill: #ff6b22;fill-rule: evenodd"/>
        <path d="M240.49,228.55s12.92,14.57,21.57-8.8C262.06,219.75,246.47,226.32,240.49,228.55Z" style="fill: #684d73;fill-rule: evenodd"/>
        <path d="M297.16,412.45a205.34,205.34,0,0,1-28.27-2.13l.11-.7c.47.08,47.05,7.11,60.65-5.25l.48.52C323.57,410.85,309.92,412.45,297.16,412.45Z" style="fill: #53345f"/>
        <path d="M234.32,409.82l-.7-.06a81.45,81.45,0,0,0-2.33-25c-5.36-20.84-32.78-46.62-33-46.88l.48-.52c.28.26,27.84,26.18,33.26,47.23A82,82,0,0,1,234.32,409.82Z" style="fill: #53345f"/>
        <path d="M179.46,290.21l-.61-.35c24.09-41.58,4.42-55.49,4.22-55.63l.39-.58c.21.14,5.25,3.6,7.31,12.36C192.64,254,192.21,268.21,179.46,290.21Z" style="fill: #53345f"/>
        <path d="M401.58,287.3c-17.22-25,8.77-55,9-55.35l.53.47c-.26.3-25.9,30-9,54.48Z" style="fill: #53345f"/>
        <path d="M275.31,304.19a37,37,0,0,1-4.55,8.25l-5.9-2.91a16.61,16.61,0,0,1,5.89-7.52Z" style="fill: #fff"/>
        <path d="M196,238.63a14.39,14.39,0,0,0,6.81.42l2.44,3s-5,2.9-8.56.15Z" style="fill: #fff"/>
        <path d="M180,385.85a19.64,19.64,0,0,0-5.69,7.55l4,3.57,5-7.64Z" style="fill: #fff"/>
        <path d="M419.79,229.35a11.31,11.31,0,0,0-4.92,4.94l-4.47.85a17,17,0,0,1,2.78-3.18C414.81,230.54,419.79,229.35,419.79,229.35Z" style="fill: #fff"/>
        <path d="M323.6,417.92s2.48,11,1.38,16.3l4.72-.1s1.87-8.11-.66-15.86Z" style="fill: #fff"/>
        <path d="M297.56,54.79S324,45.08,341,45.7C341,45.7,281.14,37.64,297.56,54.79Z" style="fill: #fff"/>
        <polygon points="262.87 113.92 272.89 111.26 275.29 122.19 265.62 123.9 262.87 113.92" style="fill: #fff"/>
      </g>
    </g>
  </g>
</svg>
